<mxfile host="65bd71144e">
    <diagram id="pHTCbHgfTt-ui69M5Gyi" name="PÃ¡gina-1">
        <mxGraphModel dx="470" dy="478" grid="1" gridSize="10" guides="1" tooltips="1" connect="1" arrows="1" fold="1" page="1" pageScale="1" pageWidth="827" pageHeight="1169" math="0" shadow="0">
            <root>
                <mxCell id="0"/>
                <mxCell id="1" parent="0"/>
                <mxCell id="14" value="" style="shape=image;verticalLabelPosition=bottom;labelBackgroundColor=#ffffff;verticalAlign=top;aspect=fixed;imageAspect=0;image=data:image/png,/9j/4AAQSkZJRgABAQAAAQABAAD/2wBDAAMCAgICAgMCAgIDAwMDBAYEBAQEBAgGBgUGCQgKCgkICQkKDA8MCgsOCwkJDRENDg8QEBEQCgwSExIQEw8QEBD/2wBDAQMDAwQDBAgEBAgQCwkLEBAQEBAQEBAQEBAQEBAQEBAQEBAQEBAQEBAQEBAQEBAQEBAQEBAQEBAQEBAQEBAQEBD/wAARCAJWAYMDASIAAhEBAxEB/8QAHQABAQACAwEBAQAAAAAAAAAAAAQDBwIFBggBCf/EAEwQAAICAwABAgMFAwUNBgYBBQECAxEABCEFBhIHEzEIIkFRkRRh0RUyYnHSFhcYIyRCUoGSk5ShwTZTVVZ0sTM0N3N1sjVDY3Ki4f/EABwBAQABBQEBAAAAAAAAAAAAAAAGAgMEBQcIAf/EAEURAAIBAgIECAoHBwUBAQAAAAABAgMEBREGEiExFkFRU5GSodEHExQVUlRhcYGxFyIyNcHh8DM0YnKCorIjNkLS8XPC/9oADAMBAAIRAxEAPwD+e8rFYnZTRCkj9Mgi29hpUVpLBYA8H55+JtTyOsbvauQpFDoOVPqwRo0iJTICwNnhGAZpWKxOymiFJH6ZBFt7DSorSWCwB4Pzz8TankdY3e1chSKHQcqfVgjRpESmQFgbPCMAzSsVidlNEKSP0yCLb2GlRWksFgDwfnn4m1PI6xu9q5CkUOg5U+rBGjSIlMgLA2eEYBmlYrE7KaIUkfpkEW3sNKitJYLAHg/PPxNqeR1jd7VyFIodByp9WCNGkRKZAWBs8IwDNKxWJ2U0QpI/TIItvYaVFaSwWAPB+efibU8jrG72rkKRQ6DlT6sEaNIiUyAsDZ4RgGaVisTspohSR+mQRbew0qK0lgsAeD88/E2p5HWN3tXIUih0HKn1YI0aREpkBYGzwjAM0rFYnZTRCkj9M9j8GPhzufE71BJq7G40Hj9NRJsuqj3GzxR/Xmvk2p5HWN3tXIUih0HPpX7JcMULef8AlrVrDff3tmg0nva2H4XVuKDyksknyZtIwsRrToW0pw3nuY/s3fDBUVX8bsuwFFjtSC/38bOX+Dh8Lv8AwrZ/4uX+1m0MZxLz/ivrM+tLvIl5Zcc5LpZq/wDwcPhd/wCFbP8Axcv9rH+Dh8Lv/Ctn/i5f7WbQxjz/AIr6zPrS7z55Xcc5LpZq/wDwcPhd/wCFbP8Axcv9rH+Dh8Lv/Ctn/i5f7WbQxjz/AIr6zPrS7x5Xcc5LpZq//Bw+F3/hWz/xcv8Aax/g4fC7/wAK2f8Ai5f7WbQxjz/ivrM+tLvHldxzkulmr/8ABw+F3/hWz/xcv9rJ9/7NPw52NV4tLX2tWYj7so2Hf2n+piQc2xjPsdIMVi81cz6z7z6ry4W3xkulnwX669Lbvonz+94Dbb3Pq2Uev56/5rZ5SLb2GlRWksFgDwfnm1/tMSyD4rzQBvuPqwAivrd3msX1YI0aREpkBYGzwjO84PdTvbCjcVftSim/fkTK0qSq0IzlvaM0rFYnZTRCkj9Mgi29hpUVpLBYA8H55+JtTyOsbvauQpFDoOVPqwRo0iJTICwNnhGbIyDNKxWJ2U0QpI/TIItvYaVFaSwWAPB+efibU8jrG72rkKRQ6DlT6sEaNIiUyAsDZ4RgGaVisTspohSR+mQRbew0qK0lgsAeD88/E2p5HWN3tXIUih0HKn1YI0aREpkBYGzwjAM0rFYnZTRCkj9Mgi29hpUVpLBYA8H55+JtTyOsbvauQpFDoOVPqwRo0iJTICwNnhGAZpWKxOymiFJH6ZBFt7DSorSWCwB4Pzz8TankdY3e1chSKHQcqfVgjRpESmQFgbPCMAzSsVidlNEKSP0yCLb2GlRWksFgDwfnn4m1PI6xu9q5CkUOg5U+rBGjSIlMgLA2eEYBmlYrE7KaIUkfpkEW3sNKitJYLAHg/PPxNqeR1jd7VyFIodByp9WCNGkRKZAWBs8IwDNKxWJ2U0QpI/TIItvYaVFaSwWAPB+efibU8jrG72rkKRQ6DlT6sEaNIiUyAsDZ4RgGaVisTspohSR+mQRbew0qK0lgsAeD88/E2p5HWN3tXIUih0HKn1YI0aREpkBYGzwjAM0rFYnZTRCkj9Mgi29hpUVpLBYA8H55+JtTyOsbvauQpFDoOVPqwRo0iJTICwNnhGAZpWKxOymiFJH6Zi0pXliLSNZDV9P3DJE2p5HWN3tXIUih0HOwjiSJfbGtAm/rgHPGMYBM+rBGjSIlMgLA2eEZKm1PI6xu9q5CkUOg4TankdY3e1chSKHQcqfVgjRpESmQFgbPCMAPqwRo0iJTICwNnhGSptTyOsbvauQpFDoOE2p5HWN3tXIUih0HKn1YI0aREpkBYGzwjAD6sEaNIiUyAsDZ4RkqbU8jrG72rkKRQ6DhNqeR1jd7VyFIodByp9WCNGkRKZAWBs8IwA+rBGjSIlMgLA2eEZKm1PI6xu9q5CkUOg4TankdY3e1chSKHQcqfVgjRpESmQFgbPCMAPqwRo0iJTICwNnhGSptTyOsbvauQpFDoOE2p5HWN3tXIUih0HKn1YI0aREpkBYGzwjAD6sEaNIiUyAsDZ4RkqbU8jrG72rkKRQ6DhNqeR1jd7VyFIodByp9WCNGkRKZAWBs8IwA+rBGjSIlMgLA2eEZ9C/ZCmkmb1D8xrpYa5+9s+cE2p5HWN3tXIUih0HPpX7JcMcLef8AlrVrDff3tkV01+5av9P+SNbi37pL4fM+i8YxnBiHDNi+nPhBP6l9K/3QanmETYfXkmh1Xj/+I6v7RGGv6t+HPrQ/fmus9LpfEL1N4/wkXgNPaji1oCGjKx1IpEgcEN9b9wBzOsZ2sJyd3FtZbMuUvUXTTfjFmj1278Ef5Nj2dvc9QFNXx/ubbYa/30UQxyfdX3dYtKFqx9LvIPE/Cvx/ntCbzHiPU4l0dd1aZ31WR44vlNI9rfWX21QJBP45Ft/GL1rvbUu1t7GpL+0M7TxtrqY5vdEsbBl/Ee1F/wBYvJ4vin6r1lEWq2lBAHRhBHrKI/aqFPYV+hUqxsH63mylWwjxmcYPV28ufs/5dnaX3K11tieX69p1/qP01r+J0PHeZ8bvvtaHk1k+UZYxHKjI1MrKCR+RFE8OdBna+b9SeQ86mtBtLBFr6aFIIII/ZHGCbND8yT9TnVZprh0pVG6KyWzpy29pizcXL6u4YxjLBQfHn2l4oz8TduYr99NOEg39KBrNRJtTyOsbvauQpFDoObY+0xLIPivNCG+4+rACK+t3eaxfVgjRpESmQFgbPCM9E6OfdNv/ACIm+H/usPcH1YI0aREpkBYGzwjJU2p5HWN3tXIUih0HCbU8jrG72rkKRQ6DlT6sEaNIiUyAsDZ4Rm6MwPqwRo0iJTICwNnhGSptTyOsbvauQpFDoOE2p5HWN3tXIUih0HKn1YI0aREpkBYGzwjAD6sEaNIiUyAsDZ4RkqbU8jrG72rkKRQ6DhNqeR1jd7VyFIodByp9WCNGkRKZAWBs8IwA+rBGjSIlMgLA2eEZKm1PI6xu9q5CkUOg4TankdY3e1chSKHQcqfVgjRpESmQFgbPCMAPqwRo0iJTICwNnhGSptTyOsbvauQpFDoOE2p5HWN3tXIUih0HKn1YI0aREpkBYGzwjAD6sEaNIiUyAsDZ4RkqbU8jrG72rkKRQ6DhNqeR1jd7VyFIodByp9WCNGkRKZAWBs8IwA+rBGjSIlMgLA2eEZKm1PI6xu9q5CkUOg4TankdY3e1chSKHQcqfVgjRpESmQFgbPCMAPqwRo0iJTICwNnhGSptTyOsbvauQpFDoOE2p5HWN3tXIUih0HKn1YI0aREpkBYGzwjAD6sEaNIiUyAsDZ4RkqbU8jrG72rkKRQ6DhNqeR1jd7VyFIodByp9WCNGkRKZAWBs8IwA+rBGjSIlMgLA2eEZKm1PI6xu9q5CkUOg4TankdY3e1chSKHQcqfVgjRpESmQFgbPCMAPqwRo0iJTICwNnhGfulK8sRaRrIavp+4ZIm1PI6xu9q5CkUOg52EcSRL7Y1oE39cA54xjAJn1YI0aREpkBYGzwjJU2p5HWN3tXIUih0HCbU8jrG72rkKRQ6DlT6sEaNIiUyAsDZ4RgB9WCNGkRKZAWBs8IyVNqeR1jd7VyFIodBwm1PI6xu9q5CkUOg5U+rBGjSIlMgLA2eEYAfVgjRpESmQFgbPCMlTankdY3e1chSKHQcJtTyOsbvauQpFDoOVPqwRo0iJTICwNnhGAH1YI0aREpkBYGzwjJU2p5HWN3tXIUih0HCbU8jrG72rkKRQ6DlT6sEaNIiUyAsDZ4RgB9WCNGkRKZAWBs8IyVNqeR1jd7VyFIodBwm1PI6xu9q5CkUOg5U+rBGjSIlMgLA2eEYAfVgjRpESmQFgbPCMlTankdY3e1chSKHQcJtTyOsbvauQpFDoOVPqwRo0iJTICwNnhGAH1YI0aREpkBYGzwjPoX7IU8kzeofmPZCw1wfm2fOCbU8jrG72rkKRQ6DmyPhJ8Rv71/mpt46zTaO0ns2Y1btDoIv8AEZodJ7GtiOF1begs5PJpcuTTMLEaM69vKEN59sYzU0P2nvhZIqe7d3ldq+7+ynh/L65nb7SXwwVSx3d6gLP+Sn+OcR8wYp6vPqsiXkdx6D6GbSxmqF+058KWYKN/esmh/kp/jmVvtJfDBVLHd3qAs/5Kf448wYp6vPqvuHklx6D6GbSxmpj9p/4UKLPkN6v/AEp/jmdvtJfDBVLHd3qAs/5Kf448wYp6vPqvuHklx6D6GbSxmqF+058KWYKN/esmh/kp/jmVvtJfDBVLHd3qAs/5Kf448wYp6vPqvuHklx6D6GbSxmqF+058KWYKN/esmh/kp/jmPyf2mfh3q6Us+k29szIpKx/I9vuP9ZOfY6P4rJ5K3n1WFZ3D2aj6GaX+0vFGfibtze376acJBv6EA5qJNqeR1jd7VyFIodBzvfWXrTyXrn1Rted36T9rkAEY6Ej+gW/6s6x9WCNGkRKZAWBs8IzvOD2s7Kwo29X7UYpP35EytKcqNCMJb0g+rBGjSIlMgLA2eEZKm1PI6xu9q5CkUOg4TankdY3e1chSKHQcqfVgjRpESmQFgbPCM2RkB9WCNGkRKZAWBs8IyVNqeR1jd7VyFIodBwm1PI6xu9q5CkUOg5U+rBGjSIlMgLA2eEYAfVgjRpESmQFgbPCMlTankdY3e1chSKHQcJtTyOsbvauQpFDoOVPqwRo0iJTICwNnhGAH1YI0aREpkBYGzwjJU2p5HWN3tXIUih0HCbU8jrG72rkKRQ6DlT6sEaNIiUyAsDZ4RgB9WCNGkRKZAWBs8IyVNqeR1jd7VyFIodBwm1PI6xu9q5CkUOg5U+rBGjSIlMgLA2eEYAfVgjRpESmQFgbPCMlTankdY3e1chSKHQcJtTyOsbvauQpFDoOVPqwRo0iJTICwNnhGAH1YI0aREpkBYGzwjJU2p5HWN3tXIUih0HCbU8jrG72rkKRQ6DlT6sEaNIiUyAsDZ4RgB9WCNGkRKZAWBs8IyVNqeR1jd7VyFIodBwm1PI6xu9q5CkUOg5U+rBGjSIlMgLA2eEYAfVgjRpESmQFgbPCMlTankdY3e1chSKHQcJtTyOsbvauQpFDoOVPqwRo0iJTICwNnhGAH1YI0aREpkBYGzwjJU2p5HWN3tXIUih0HCbU8jrG72rkKRQ6DlT6sEaNIiUyAsDZ4RgB9WCNGkRKZAWBs8Iz90pXliLSNZDV9P3DJE2p5HWN3tXIUih0HOwjiSJfbGtAm/rgHPGMYBM+rBGjSIlMgLA2eEZKm1PI6xu9q5CkUOg4TankdY3e1chSKHQcqfVgjRpESmQFgbPCMAPqwRo0iJTICwNnhGSptTyOsbvauQpFDoOE2p5HWN3tXIUih0HKn1YI0aREpkBYGzwjAD6sEaNIiUyAsDZ4RkqbU8jrG72rkKRQ6DhNqeR1jd7VyFIodByp9WCNGkRKZAWBs8IwA+rBGjSIlMgLA2eEZKm1PI6xu9q5CkUOg4TankdY3e1chSKHQcqfVgjRpESmQFgbPCMAPqwRo0iJTICwNnhGSptTyOsbvauQpFDoOE2p5HWN3tXIUih0HKn1YI0aREpkBYGzwjAD6sEaNIiUyAsDZ4RkqbU8jrG72rkKRQ6DhNqeR1jd7VyFIodByp9WCNGkRKZAWBs8IwA+rBGjSIlMgLA2eEZKm1PI6xu9q5CkUOg4TankdY3e1chSKHQcqfVgjRpESmQFgbPCMAPqwRo0iJTICwNnhGSptTyOsbvauQpFDoOE2p5HWN3tXIUih0HKn1YI0aREpkBYGzwjAD6sEaNIiUyAsDZ4RkqbU8jrG72rkKRQ6DhNqeR1jd7VyFIodByp9WCNGkRKZAWBs8IwDFu6sEepM6R0yoSDZ+uYk2p5HWN3tXIUih0HJPIeTeGAidz7H+6SFGdhCurNq/tkETL90uha7/cfrgGV9WCNGkRKZAWBs8IyVNqeR1jd7VyFIodBwm1PI6xu9q5CkUOg5U+rBGjSIlMgLA2eEYAfVgjRpESmQFgbPCMlTankdY3e1chSKHQcJtTyOsbvauQpFDoOVPqwRo0iJTICwNnhGAH1YI0aREpkBYGzwjJU2p5HWN3tXIUih0HCbU8jrG72rkKRQ6DlT6sEaNIiUyAsDZ4RgB9WCNGkRKZAWBs8IyVNqeR1jd7VyFIodBwm1PI6xu9q5CkUOg5U+rBGjSIlMgLA2eEYAfVgjRpESmQFgbPCMlTankdY3e1chSKHQcJtTyOsbvauQpFDoOVPqwRo0iJTICwNnhGAH1YI0aREpkBYGzwjJU2p5HWN3tXIUih0HCbU8jrG72rkKRQ6DlT6sEaNIiUyAsDZ4RgB9WCNGkRKZAWBs8IyVNqeR1jd7VyFIodBwm1PI6xu9q5CkUOg5U+rBGjSIlMgLA2eEYAfVgjRpESmQFgbPCMlTankdY3e1chSKHQcJtTyOsbvauQpFDoOVPqwRo0iJTICwNnhGAH1YI0aREpkBYGzwjJU2p5HWN3tXIUih0HCbU8jrG72rkKRQ6DlT6sEaNIiUyAsDZ4RgB9WCNGkRKZAWBs8IyVNqeR1jd7VyFIodBwm1PI6xu9q5CkUOg5U+rBGjSIlMgLA2eEYAfVgjRpESmQFgbPCMlTankdY3e1chSKHQcJtTyOsbvauQpFDoOVPqwRo0iJTICwNnhGAH1YI0aREpkBYGzwjJU2p5HWN3tXIUih0HCbU8jrG72rkKRQ6DlT6sEaNIiUyAsDZ4RgB9WCNGkRKZAWBs8IyVNqeR1jd7VyFIodBwm1PI6xu9q5CkUOg5U+rBGjSIlMgLA2eEYAfVgjRpESmQFgbPCM/dKV5Yi0jWQ1fT9wyRNqeR1jd7VyFIodBzsI4kiX2xrQJv64BzxjGATPqwRo0iJTICwNnhGSptTyOsbvauQpFDoOE2p5HWN3tXIUih0HKn1YI0aREpkBYGzwjAD6sEaNIiUyAsDZ4RkqbU8jrG72rkKRQ6DhNqeR1jd7VyFIodByp9WCNGkRKZAWBs8IwA+rBGjSIlMgLA2eEZKm1PI6xu9q5CkUOg4TankdY3e1chSKHQcqfVgjRpESmQFgbPCMAPqwRo0iJTICwNnhGSptTyOsbvauQpFDoOE2p5HWN3tXIUih0HKn1YI0aREpkBYGzwjAD6sEaNIiUyAsDZ4RkqbU8jrG72rkKRQ6DhNqeR1jd7VyFIodByp9WCNGkRKZAWBs8IwA+rBGjSIlMgLA2eEZKm1PI6xu9q5CkUOg4TankdY3e1chSKHQcqfVgjRpESmQFgbPCMAPqwRo0iJTICwNnhGel+H/pnX9XftieQ2pkEAWhH7Rd3d8zyCbU8jrG72rkKRQ6Dm0vhFDHC/kPlrVql9/ec02P3FW1w+pVovKSy2/FEf0ouq1nhdStQlqyWWTXvRYPg/wCn1IZdraBHQfcOf8s5n4TeHYFW8juEHhFr3/lnusZzXz/iXPM5Fwnxfn5Hgh8H/T6kMu1tAjoPuHP+Wcz8JvDsCreR3CDwi17/AMs91jHn/EueY4T4vz8jX0/wX9NbERik2Nog/wBIfwzMPhJ4YII/5Q3PYBVWv0/L6Z7vGPP+Jc8xwnxfn5Hgh8H/AE+pDLtbQI6D7hz/AJZzPwm8OwKt5HcIPCLXv/LPdYx5/wAS55jhPi/PyPBD4P8Ap9SGXa2gR0H3Dn/LOZ+E3h2BVvI7hB4Ra9/5Z7rGPP8AiXPMcJ8X5+Rob1d6d0fTvlZdLT97CKMOrO1m6vPOptTyOsbvauQpFDoOev8AifLIPWMkIb7jxxhhX1v655p9WCNGkRKZAWBs8IzqmFVZ1rKlUqPNuKbZ2rBa1S4w6jVqvOTim3yvIPqwRo0iJTICwNnhGSptTyOsbvauQpFDoOE2p5HWN3tXIUih0HKn1YI0aREpkBYGzwjM82YfVgjRpESmQFgbPCMlTankdY3e1chSKHQcJtTyOsbvauQpFDoOVPqwRo0iJTICwNnhGAH1YI0aREpkBYGzwjJU2p5HWN3tXIUih0HCbU8jrG72rkKRQ6DlT6sEaNIiUyAsDZ4RgB9WCNGkRKZAWBs8IyVNqeR1jd7VyFIodBwm1PI6xu9q5CkUOg5U+rBGjSIlMgLA2eEYAfVgjRpESmQFgbPCMlTankdY3e1chSKHQcJtTyOsbvauQpFDoOVPqwRo0iJTICwNnhGAH1YI0aREpkBYGzwjJU2p5HWN3tXIUih0HCbU8jrG72rkKRQ6DlT6sEaNIiUyAsDZ4RgB9WCNGkRKZAWBs8IyVNqeR1jd7VyFIodBwm1PI6xu9q5CkUOg5U+rBGjSIlMgLA2eEYAfVgjRpESmQFgbPCMlTankdY3e1chSKHQcJtTyOsbvauQpFDoOVPqwRo0iJTICwNnhGAH1YI0aREpkBYGzwjJU2p5HWN3tXIUih0HCbU8jrG72rkKRQ6DlT6sEaNIiUyAsDZ4RgB9WCNGkRKZAWBs8IyVNqeR1jd7VyFIodBwm1PI6xu9q5CkUOg5U+rBGjSIlMgLA2eEYAfVgjRpESmQFgbPCM/dKV5Yi0jWQ1fT9wyRNqeR1jd7VyFIodBzsI4kiX2xrQJv64BzxjGATPqwRo0iJTICwNnhGSptTyOsbvauQpFDoOE2p5HWN3tXIUih0HKn1YI0aREpkBYGzwjAD6sEaNIiUyAsDZ4RkqbU8jrG72rkKRQ6DhNqeR1jd7VyFIodByp9WCNGkRKZAWBs8IwA+rBGjSIlMgLA2eEZKm1PI6xu9q5CkUOg4TankdY3e1chSKHQcqfVgjRpESmQFgbPCMAPqwRo0iJTICwNnhGSptTyOsbvauQpFDoOE2p5HWN3tXIUih0HKn1YI0aREpkBYGzwjAD6sEaNIiUyAsDZ4RkqbU8jrG72rkKRQ6DhNqeR1jd7VyFIodByp9WCNGkRKZAWBs8IwA+rBGjSIlMgLA2eEZKm1PI6xu9q5CkUOg4TankdY3e1chSKHQcqfVgjRpESmQFgbPCMAPqwRo0iJTICwNnhGbB+DM0kz+S+Y10Ern9ea0TankdY3e1chSKHQc2l8IoY4X8h8tatUvv7zmg0n+66nw+aIxpj9zVv6f8kbJxjGcjOFjPbeK+DXxC8zq6W3o+FQx78J2I/mbUUZSEKW+bIGYGJCoJDPQIHCc8SDRsZtPQ+PW7qjXk2/RviN3ZTw6+C2NiSXYVtnTEfsCMFkCqarqgGxmVbRoSb8e2l7P/GZlpG2lJ+Utpez/wAZ0nnfgr8SPTXgdn1J5vwH7LpalmUvsR/MVfmiL3/L93uK+8ge4CujvRnmJ/TfqHV8cnmNnwXkItCQKybT6zrEwb6EORRv8O5sL1r9oT1R658fu+O8n4jx0Sbvjl8YTD7x7Il2UnWrb6gxqvfw/f3PGbvrz1F5D0/F6Y2W8d+wQqir8vxerHNS/S5ljEh/eS3fxvK68bRSfiW2su3s2Fy5jYxm1QlJrLjy39mzpO69UfCPznpX0lq+q9ze1JVleFNjVT3CXVMsfzIw9ija959Poc8Lnu/VPxd816q9IanpLb8ZpwrC0L7G3GXM20Yovlxl/cSBS/kBf1OeEy1c+J1/9Ddl2lm78Rrryfdkun9du4YxjMcxTTHxOijPqfYmK/fSFSpv6UDWeLTankdY3e1chSKHQc9f8T5ZB6xkhDfceOMMK+t/XPNPqwRo0iJTICwNnhGdowX7vo/yr5HoPR/7rt/5F8g+rBGjSIlMgLA2eEZKm1PI6xu9q5CkUOg4TankdY3e1chSKHQcqfVgjRpESmQFgbPCM2ZuA+rBGjSIlMgLA2eEZKm1PI6xu9q5CkUOg4TankdY3e1chSKHQcqfVgjRpESmQFgbPCMAPqwRo0iJTICwNnhGSptTyOsbvauQpFDoOE2p5HWN3tXIUih0HKn1YI0aREpkBYGzwjAD6sEaNIiUyAsDZ4RkqbU8jrG72rkKRQ6DhNqeR1jd7VyFIodByp9WCNGkRKZAWBs8IwA+rBGjSIlMgLA2eEZKm1PI6xu9q5CkUOg4TankdY3e1chSKHQcqfVgjRpESmQFgbPCMAPqwRo0iJTICwNnhGSptTyOsbvauQpFDoOE2p5HWN3tXIUih0HKn1YI0aREpkBYGzwjAD6sEaNIiUyAsDZ4RkqbU8jrG72rkKRQ6DhNqeR1jd7VyFIodByp9WCNGkRKZAWBs8IwA+rBGjSIlMgLA2eEZKm1PI6xu9q5CkUOg4TankdY3e1chSKHQcqfVgjRpESmQFgbPCMAPqwRo0iJTICwNnhGSptTyOsbvauQpFDoOE2p5HWN3tXIUih0HKn1YI0aREpkBYGzwjAD6sEaNIiUyAsDZ4RkqbU8jrG72rkKRQ6DhNqeR1jd7VyFIodByp9WCNGkRKZAWBs8IwA+rBGjSIlMgLA2eEZ+6UryxFpGshq+n7hkibU8jrG72rkKRQ6DnYRxJEvtjWgTf1wDnjGMAmfVgjRpESmQFgbPCMlTankdY3e1chSKHQcJtTyOsbvauQpFDoOVPqwRo0iJTICwNnhGAH1YI0aREpkBYGzwjJU2p5HWN3tXIUih0HCbU8jrG72rkKRQ6DlT6sEaNIiUyAsDZ4RgB9WCNGkRKZAWBs8IyVNqeR1jd7VyFIodBwm1PI6xu9q5CkUOg5U+rBGjSIlMgLA2eEYAfVgjRpESmQFgbPCMlTankdY3e1chSKHQcJtTyOsbvauQpFDoOVPqwRo0iJTICwNnhGAH1YI0aREpkBYGzwjJU2p5HWN3tXIUih0HCbU8jrG72rkKRQ6DlT6sEaNIiUyAsDZ4RgB9WCNGkRKZAWBs8IyVNqeR1jd7VyFIodBwm1PI6xu9q5CkUOg5U+rBGjSIlMgLA2eEYAfVgjRpESmQFgbPCM2D8GZpJn8l8xroJXP681om1PI6xu9q5CkUOg5sT4a+V8N4A7z7+0mssirRazdXmj0jpzq4bUhTTb2bFt40RzSylUrYRVhSi23lsSzf2kbXxnnh6/8ASDEKPOQkng+638MyH1x6VUFj5iIAdP3W/hnLPN15zUuq+44t5qvuZn1X3He4zzw9f+kGIUechJPB91v4ZkPrj0qoLHzEQA6fut/DHm685qXVfcPNV9zM+q+473GedPxB9HDp87B+jfwzKfXHpVQWPmIgB0/db+GPN15zUuq+4ear7mZ9V9x3uM88PX/pBiFHnISTwfdb+GZD649KqCx8xEAOn7rfwx5uvOal1X3DzVfczPqvuO9xnnh6/wDSDEKPOQkng+638MyH1x6VUFj5iIAdP3W/hjzdec1LqvuHmq+5mfVfca1+J0UZ9T7ExX76QqVN/SgazxabU8jrG72rkKRQ6DnpfX3mNXy3qdpvHbSz60qIpZRw/gR3udI+rBGjSIlMgLA2eEZ17CIyhYUYyWTUUd3wKEqeG0ITWTUVsfuD6sEaNIiUyAsDZ4RkqbU8jrG72rkKRQ6DhNqeR1jd7VyFIodByp9WCNGkRKZAWBs8IzYm1D6sEaNIiUyAsDZ4RkqbU8jrG72rkKRQ6DhNqeR1jd7VyFIodByp9WCNGkRKZAWBs8IwA+rBGjSIlMgLA2eEZKm1PI6xu9q5CkUOg4TankdY3e1chSKHQcqfVgjRpESmQFgbPCMAPqwRo0iJTICwNnhGSptTyOsbvauQpFDoOE2p5HWN3tXIUih0HKn1YI0aREpkBYGzwjAD6sEaNIiUyAsDZ4RkqbU8jrG72rkKRQ6DhNqeR1jd7VyFIodByp9WCNGkRKZAWBs8IwA+rBGjSIlMgLA2eEZKm1PI6xu9q5CkUOg4TankdY3e1chSKHQcqfVgjRpESmQFgbPCMAPqwRo0iJTICwNnhGSptTyOsbvauQpFDoOE2p5HWN3tXIUih0HKn1YI0aREpkBYGzwjAD6sEaNIiUyAsDZ4RkqbU8jrG72rkKRQ6DhNqeR1jd7VyFIodByp9WCNGkRKZAWBs8IwA+rBGjSIlMgLA2eEZKm1PI6xu9q5CkUOg4TankdY3e1chSKHQcqfVgjRpESmQFgbPCMAPqwRo0iJTICwNnhGSptTyOsbvauQpFDoOE2p5HWN3tXIUih0HKn1YI0aREpkBYGzwjAD6sEaNIiUyAsDZ4Rn7pSvLEWkayGr6fuGSJtTyOsbvauQpFDoOdhHEkS+2NaBN/XAOeMYwCZ9WCNGkRKZAWBs8IyVNqeR1jd7VyFIodBwm1PI6xu9q5CkUOg5U+rBGjSIlMgLA2eEYAfVgjRpESmQFgbPCMlTankdY3e1chSKHQcJtTyOsbvauQpFDoOVPqwRo0iJTICwNnhGAH1YI0aREpkBYGzwjJU2p5HWN3tXIUih0HCbU8jrG72rkKRQ6DlT6sEaNIiUyAsDZ4RgB9WCNGkRKZAWBs8IyVNqeR1jd7VyFIodBwm1PI6xu9q5CkUOg5U+rBGjSIlMgLA2eEYAfVgjRpESmQFgbPCMlTankdY3e1chSKHQcJtTyOsbvauQpFDoOVPqwRo0iJTICwNnhGAH1YI0aREpkBYGzwjJU2p5HWN3tXIUih0HCbU8jrG72rkKRQ6DlT6sEaNIiUyAsDZ4RgB9WCNGkRKZAWBs8IyVNqeR1jd7VyFIodBwm1PI6xu9q5CkUOg5U+rBGjSIlMgLA2eEYAfVgjRpESmQFgbPCMlTankdY3e1chSKHQcJtTyOsbvauQpFDoOVPqwRo0iJTICwNnhGAH1YI0aREpkBYGzwjJU2p5HWN3tXIUih0HCbU8jrG72rkKRQ6DlT6sEaNIiUyAsDZ4RgGLd1YI9SZ0jplQkGz9cxJtTyOsbvauQpFDoOTb3kmjgK7E1LJ93+b9cvjXTl1ztawsAFkbv1H49wDI+rBGjSIlMgLA2eEZKm1PI6xu9q5CkUOg4TankdY3e1chSKHQcqfVgjRpESmQFgbPCMAPqwRo0iJTICwNnhGSptTyOsbvauQpFDoOE2p5HWN3tXIUih0HKn1YI0aREpkBYGzwjAD6sEaNIiUyAsDZ4RkqbU8jrG72rkKRQ6DhNqeR1jd7VyFIodByp9WCNGkRKZAWBs8IwA+rBGjSIlMgLA2eEZKm1PI6xu9q5CkUOg4TankdY3e1chSKHQcqfVgjRpESmQFgbPCMAPqwRo0iJTICwNnhGSptTyOsbvauQpFDoOE2p5HWN3tXIUih0HKn1YI0aREpkBYGzwjAD6sEaNIiUyAsDZ4RkqbU8jrG72rkKRQ6DhNqeR1jd7VyFIodByp9WCNGkRKZAWBs8IwA+rBGjSIlMgLA2eEZKm1PI6xu9q5CkUOg4TankdY3e1chSKHQcqfVgjRpESmQFgbPCMAPqwRo0iJTICwNnhGSptTyOsbvauQpFDoOE2p5HWN3tXIUih0HKn1YI0aREpkBYGzwjAD6sEaNIiUyAsDZ4RkqbU8jrG72rkKRQ6DhNqeR1jd7VyFIodByp9WCNGkRKZAWBs8IwA+rBGjSIlMgLA2eEZKm1PI6xu9q5CkUOg4TankdY3e1chSKHQcqfVgjRpESmQFgbPCMAPqwRo0iJTICwNnhGSptTyOsbvauQpFDoOE2p5HWN3tXIUih0HKn1YI0aREpkBYGzwjAD6sEaNIiUyAsDZ4RkqbU8jrG72rkKRQ6DhNqeR1jd7VyFIodByp9WCNGkRKZAWBs8IwA+rBGjSIlMgLA2eEZKm1PI6xu9q5CkUOg4TankdY3e1chSKHQcqfVgjRpESmQFgbPCMAPqwRo0iJTICwNnhGfulK8sRaRrIavp+4ZIm1PI6xu9q5CkUOg52EcSRL7Y1oE39cA54xjAJn1YI0aREpkBYGzwjJU2p5HWN3tXIUih0HCbU8jrG72rkKRQ6DlT6sEaNIiUyAsDZ4RgB9WCNGkRKZAWBs8IyVNqeR1jd7VyFIodBwm1PI6xu9q5CkUOg5U+rBGjSIlMgLA2eEYAfVgjRpESmQFgbPCMlTankdY3e1chSKHQcJtTyOsbvauQpFDoOVPqwRo0iJTICwNnhGAH1YI0aREpkBYGzwjJU2p5HWN3tXIUih0HCbU8jrG72rkKRQ6DlT6sEaNIiUyAsDZ4RgB9WCNGkRKZAWBs8IyVNqeR1jd7VyFIodBwm1PI6xu9q5CkUOg5U+rBGjSIlMgLA2eEYAfVgjRpESmQFgbPCMlTankdY3e1chSKHQcJtTyOsbvauQpFDoOWDSiv/ABUf3/8AN6fr+GVRi5yUY72fG0lmz0vpz0AnnNNt4bB16f2ofaWsj8frnbf3rJTx/OsynhHyB0frnsfAaH8meI1dM/zkjBf/APyPT/zzsM9XYX4MtH6VlSheW6lVUVrPWltllt3SS3nH73S3EpXM3b1MoZvJZLdxcRr3+9NAOp5Iqw6D8s8P65+/3rJTx/OsynhHyB0frmwcZn/Rtot6outP/sYvCzF+e7I9xr3+9NAOp5Iqw6D8s8P65+/3rJTx/OsynhHyB0frmwcY+jbRb1Rdaf8A2HCzF+e7I9xrfb+DmntwNA/kiL+hEfQf1zLH8KGjjWEebPy1AX2/IA5+X1zYeMfRtot6outP/sOFmL892R7jXv8AemgHU8kVYdB+WeH9c/f71kp4/nWZTwj5A6P1zYOMfRtot6outP8A7DhZi/Pdke417/emgHU8kVYdB+WeH9c/f71kp4/nWZTwj5A6P1zYOMfRtot6outP/sOFmL892R7jXv8AemgHU8kVYdB+WeH9c/f71kp4/nWZTwj5A6P1zYOMfRtot6outP8A7DhZi/Pdke416fhProC48n7SvQ3s+n7/AK54Dado959NNgyxCT5fuKge4XRzdXqvyQ8Z4PYn91M4+Un9bczTMuvCivMqU6gsDZ+ucd8KeDYJgEqFnhlFQqSzlJ5yezcltb3vPoJzojfX+JQqV7uetFbFsS28e5e4/H1YI0aREpkBYGzwjJU2p5HWN3tXIUih0HCbU8jrG72rkKRQ6DlT6sEaNIiUyAsDZ4RnIiZB9WCNGkRKZAWBs8IyVNqeR1jd7VyFIodBwm1PI6xu9q5CkUOg5U+rBGjSIlMgLA2eEYAfVgjRpESmQFgbPCMlTankdY3e1chSKHQcJtTyOsbvauQpFDoOVPqwRo0iJTICwNnhGAH1YI0aREpkBYGzwjJU2p5HWN3tXIUih0HCbU8jrG72rkKRQ6DlT6sEaNIiUyAsDZ4RgB9WCNGkRKZAWBs8IyVNqeR1jd7VyFIodBwm1PI6xu9q5CkUOg5U+rBGjSIlMgLA2eEYAfVgjRpESmQFgbPCMlTankdY3e1chSKHQcJtTyOsbvauQpFDoOVPqwRo0iJTICwNnhGAH1YI0aREpkBYGzwjJU2p5HWN3tXIUih0HCbU8jrG72rkKRQ6DlT6sEaNIiUyAsDZ4RgB9WCNGkRKZAWBs8IyVNqeR1jd7VyFIodBwm1PI6xu9q5CkUOg5U+rBGjSIlMgLA2eEYAfVgjRpESmQFgbPCMlTankdY3e1chSKHQcJtTyOsbvauQpFDoOVPqwRo0iJTICwNnhGAH1YI0aREpkBYGzwjP3SleWItI1kNX0/cMkTankdY3e1chSKHQc7COJIl9sa0Cb+uAc8YxgEz6sEaNIiUyAsDZ4RkqbU8jrG72rkKRQ6DhNqeR1jd7VyFIodByp9WCNGkRKZAWBs8IwA+rBGjSIlMgLA2eEZKm1PI6xu9q5CkUOg4TankdY3e1chSKHQcqfVgjRpESmQFgbPCMAPqwRo0iJTICwNnhGSptTyOsbvauQpFDoOE2p5HWN3tXIUih0HKn1YI0aREpkBYGzwjAD6sEaNIiUyAsDZ4RkqbU8jrG72rkKRQ6DhNqeR1jd7VyFIodByp9WCNGkRKZAWBs8IwA+rBGjSIlMgLA2eEZKm1PI6xu9q5CkUOg4TankdY3e1chSKHQcqfVgjRpESmQFgbPCMAPqwRo0iJTICwNnhGdr6G1djy/qGCKRvdFEfmvwfQfT/nnQJtTyOsbvauQpFDoObQ+GXiI9bX2PJCP2mU/LX+odOTjwdYP540hoQks4QevL3R2rplkjRaSXvkOG1Jp7WtVe9/lmbM8L6X9R+oo9qXwPhN3fTRj+bstrws4hT/SavoP687fS+FXxG3vJeO8VD6M8uNjyqfN1FbVcfNj/ABkXnVANk/ll3oj4heK9OemPK+l/NeD292Df29ffhl1N0a0kU8KSKvuJRvelSm159B0dzaDfar8XNLPFP6F3DqeTml3PJqnlQJX2HEIuB/lH5MYOun3CGuz36Z6fv7zF6VWUbW3Uo8TzXItv2lx57Mlu37c1yG3oWU4J1qjT5Mny+7ky/SyNKeT9EepPGer5/Qp8dJteag2Tqfs2qDKzyg17VA/nfT8MuPwm+Jq7WzpyehPOJNpRpNso2lIDDG1+1m5wH2nv7jnq974qemdX4seI+L3hfE7r7Q3ZfI+Q8dLsikk+Y3sRJfYOewqSfae3nrPHfarg1PF+O09r0ZsT7Hh9FINOZfJe0GcJMheVfl3IhEo+5Yr2nveW699jMYQdvbqTcVrZtJqW3P8A5btnQ803lk66dvYOUlUqtbXllt2bMuLf3ZGsPVPwb+JPpCTyH8sek/ILr+KWN9vajgZoYg6qy29UOOv+s5Afh56oT0KfiLLpCPwh210kmZwGkkN/zV+pH3T36Xm3fPfaa9LeY8R53Wg+Gkmt5Lzug+lLunficj3JEpbsHvABisKrqDfbIBzVGn64XV+G/kvQB8cztv8AktffG182gnylcez2V2/f9b/D6ZXY3OMVqKdzSUJKUU922OzWayk8snnlteziKbilYwm/FTbWTy37HxcS/XGdL4H07571T5FPEenPD7fk92QFl19WIySEAWSFHeDO/wDH/CH4meT3ZNDX9E+YEkGymnsF9RwsErEAK5r7p6Pr+edj6M9deA+G3qVPO+A1dvyCz+Hl1J0klETJPNCyOVPt/mqWsCu19fxzZsH2uNaGGKRvQszbmnrya2q/8pD5YWWKKOUyJ8v/ABh/xQKmxV9us+Yhe4xCplY26lBre2k09u9NrZu+e3cfbW3sZRzuKjUs+JZ7Oh/rpNN+o/hd6+9Kp5DY816W8hBqeL2TqbO38hvkJIDVe+q+pFfnecd/4e+X0vSS+s4t7x+5oCWGCca0/wAyTWklRnjWQVwkK34miCDR5myfWf2gvSfqT0X5/wBMeL+HEvjtvz4Al3W3opGsbY2bYiAO3fu17wtAGr+vn9z198O/Mei/F+h09N+X8JBoxnY2pofIRypu7oiYCV0+SGssQAC5CqSB9ScW95i0qcZXFHVetk8tV/USTzy1ntbzSSze5v2qlCyUmqdTNZbN+/PduXFk3meM0/QXrXyPgX9UaHpXymx4iNir70es7QKQQCC4FfUgf6872P4HfFRvE7vmJfRflNeLREBdJtd0kcSt7UKKRbWecz0/oL7QR9C+nPGeBi9ONtN4wbhWRtqkdpjGQSnt/wA0xCxfb/DPXP8Aau9MzRp4/b+GezteOG0d59efy4cvO2w0zgt8mvlksQErn4k9yxd32PwqONC2Tjrb819nPkclta+fFltuUbfDZRTqVWnlyPfl7nsz+Xt2aQk9CeotD1DH6Z9Rah8DuPH84jygOuEjokMbF9o1QJP0F5H6p9M+U9H+d2fT3mY0Tb1faW9jBlZWUMrKfxBVgR+457r1x8VvTXrT1x4X1L/cnv8AjtDw3jYfHx6up5COKYGJnZJEkSEIhBcGhHX3f355n4net4/iB6v3PVaeN/YUnjiT5bSfMkPy41T3yPQ97t7bLULJPM2dnXv6lSn5RT1YuDct2yWayS2viz9m7aYlenbRjLxUs3rbN+1Ze7ly7jSvxQ8h7hD45G/+Gpmb+v8Azf8ArmuE2p5HWN3tXIUih0HO29TeZl8t6h2ZA9wtL8tRQ/mg1kb6sEaNIiUyAsDZ4Rnk3TzF/PWP3FxF5xi9WPujs7Xm/idnwCy8gw6lSa25Zv3vb+QfVgjRpESmQFgbPCMlTankdY3e1chSKHQcJtTyOsbvauQpFDoOVPqwRo0iJTICwNnhGRA3IfVgjRpESmQFgbPCMlTankdY3e1chSKHQcJtTyOsbvauQpFDoOVPqwRo0iJTICwNnhGAH1YI0aREpkBYGzwjJU2p5HWN3tXIUih0HCbU8jrG72rkKRQ6DlT6sEaNIiUyAsDZ4RgB9WCNGkRKZAWBs8IyVNqeR1jd7VyFIodBwm1PI6xu9q5CkUOg5U+rBGjSIlMgLA2eEYAfVgjRpESmQFgbPCMlTankdY3e1chSKHQcJtTyOsbvauQpFDoOVPqwRo0iJTICwNnhGAH1YI0aREpkBYGzwjJU2p5HWN3tXIUih0HCbU8jrG72rkKRQ6DlT6sEaNIiUyAsDZ4RgB9WCNGkRKZAWBs8IyVNqeR1jd7VyFIodBwm1PI6xu9q5CkUOg5U+rBGjSIlMgLA2eEYAfVgjRpESmQFgbPCMlTankdY3e1chSKHQcJtTyOsbvauQpFDoOVPqwRo0iJTICwNnhGAH1YI0aREpkBYGzwjJU2p5HWN3tXIUih0HCbU8jrG72rkKRQ6DlT6sEaNIiUyAsDZ4RgB9WCNGkRKZAWBs8Iz90pXliLSNZDV9P3DJE2p5HWN3tXIUih0HOwjiSJfbGtAm/rgHPGMYBM+rBGjSIlMgLA2eEZKm1PI6xu9q5CkUOg4TankdY3e1chSKHQcqfVgjRpESmQFgbPCMAPqwRo0iJTICwNnhGSptTyOsbvauQpFDoOE2p5HWN3tXIUih0HKn1YI0aREpkBYGzwjAD6sEaNIiUyAsDZ4RkqbU8jrG72rkKRQ6DhNqeR1jd7VyFIodByp9WCNGkRKZAWBs8IwA+rBGjSIlMgLA2eEZKm1PI6xu9q5CkUOg4TankdY3e1chSKHQcqfVgjRpESmQFgbPCMAPqwRo0iJTICwNnhGSptTyOsbvauQpFDoOE2p5HWN3tXIUih0HKn1YI0aREpkBYGzwjAOX7FF/wD0Y/8AGf5vSe/hm7PA6H8meI1dM/zkjHuP5senNQej3Ta89rDyG3HFBG3vYyEKDX0Gbg/l7wgH/wDLagA//urnoPwN2VvaWtfEq84qU3qrNpPKO19LfYc405rVa1Sna04tpbXknvexfr2l+M64eovAk0PM6f8Avl/jnI+f8IBZ8tqf75c7V5fac7HrLvIB5Jceg+hl+M64eovAk0PM6f8Avl/jnI+f8IBZ8tqf75ceX2nOx6y7x5Jceg+hl+M64eovAk0PM6f++X+Ocj5/wgFny2p/vlx5fac7HrLvHklx6D6GX4zrv7o/AD6+Z0v98v8AHOR8/wCEAs+W1P8AfLjy+052PWXePJLj0H0MvxnXD1F4Emh5nT/3y/xzkfP+EAs+W1P98uPL7TnY9Zd48kuPQfQy/GdcPUXgSaHmdP8A3y/xzkfP+EAs+W1P98uPL7TnY9Zd48kuPQfQy/Oo9V+RHjPB7E907j5af1tzMw9ReBJoeZ0/98v8c8V8SPNa27FDqaWykyRgzFkYEBh9Mj+lWkNvhODXF1TqRc1FqOTT+s9i7XmbXBcLq3l/SpTg1HPN5p7ltPES60KK0qpTqCwNn65Im1PI6xu9q5CkUOg4TankdY3e1chSKHQcqfVgjRpESmQFgbPCM8ZttvNncQ+rBGjSIlMgLA2eEZKm1PI6xu9q5CkUOg4TankdY3e1chSKHQcqfVgjRpESmQFgbPCM+APqwRo0iJTICwNnhGSptTyOsbvauQpFDoOE2p5HWN3tXIUih0HKn1YI0aREpkBYGzwjAD6sEaNIiUyAsDZ4RkqbU8jrG72rkKRQ6DhNqeR1jd7VyFIodByp9WCNGkRKZAWBs8IwA+rBGjSIlMgLA2eEZKm1PI6xu9q5CkUOg4TankdY3e1chSKHQcqfVgjRpESmQFgbPCMAPqwRo0iJTICwNnhGSptTyOsbvauQpFDoOE2p5HWN3tXIUih0HKn1YI0aREpkBYGzwjAD6sEaNIiUyAsDZ4RkqbU8jrG72rkKRQ6DhNqeR1jd7VyFIodByp9WCNGkRKZAWBs8IwA+rBGjSIlMgLA2eEZKm1PI6xu9q5CkUOg4TankdY3e1chSKHQcqfVgjRpESmQFgbPCMAPqwRo0iJTICwNnhGSptTyOsbvauQpFDoOE2p5HWN3tXIUih0HKn1YI0aREpkBYGzwjAD6sEaNIiUyAsDZ4RkqbU8jrG72rkKRQ6DhNqeR1jd7VyFIodByp9WCNGkRKZAWBs8IwA+rBGjSIlMgLA2eEZ+6UryxFpGshq+n7hkibU8jrG72rkKRQ6DnYRxJEvtjWgTf1wDnjGMAlmg1teJpvaFKCwST9fwyNPIPKyo7syOQCBGej9M4HYl2NuGGVvcnTVD8wP+pzsH1YI0aREpkBYGzwjAMT/scaNJHHIGUEqfY/D+mTp5CSR1jkdyrEBh8s9H6ZzTankdY3e1chSKHQcqfVgjRpESmQFgbPCMAxP+xxo0kccgZQSp9j8P6ZOnkJJHWOR3KsQGHyz0fpnNNqeR1jd7VyFIodByp9WCNGkRKZAWBs8IwDE/7HGjSRxyBlBKn2Pw/pk6eQkkdY5HcqxAYfLPR+mc02p5HWN3tXIUih0HKn1YI0aREpkBYGzwjAMT/scaNJHHIGUEqfY/D+mTp5CSR1jkdyrEBh8s9H6ZzTankdY3e1chSKHQcqfVgjRpESmQFgbPCMAxP+xxo0kccgZQSD7H4R/qydPISSOscjuVYgMPlno/TOabU8jrG72rkKRQ6DlT6sEaNIiUyAsDZ4RjMGJ/2ONGkjjkDKCVPsfh/TJ08hJI6xyO5ViAw+Wej9M5ptTyOsbvauQpFDoOVPqwRo0iJTICwNnhGfc2DE/wCxxo0kccgZQSp9j8P6ZOnkJJHWOR3KsQGHyz0fpnNNqeR1jd7VyFIodByp9WCNGkRKZAWBs8IxmwYn/Y40aSOOQMoJU+x+H9MnTyEkjrHI7lWIDD5Z6P0zmm1PI6xu9q5CkUOg5U+rBGjSIlMgLA2eEYzYOnl8hrNLs6Q1HDxg+2RfdX0sXf0y5NqeR1jd7VyFIodByTY2lhhdGdIxMT7uAe4n652Yj1GhOxrU3tBKsGJFjGbByfVgjRpESmQFgbPCMlTankdY3e1chSKHQcJtTyOsbvauQpFDoOVPqwRo0iJTICwNnhGM2A+rBGjSIlMgLA2eEZKm1PI6xu9q5CkUOg4TankdY3e1chSKHQcqfVgjRpESmQFgbPCMZsB9WCNGkRKZAWBs8IyVNqeR1jd7VyFIodBwm1PI6xu9q5CkUOg5U+rBGjSIlMgLA2eEZ8zAfVgjRpESmQFgbPCMlTankdY3e1chSKHQcJtTyOsbvauQpFDoOVPqwRo0iJTICwNnhGAH1YI0aREpkBYGzwjJU2p5HWN3tXIUih0HCbU8jrG72rkKRQ6DlT6sEaNIiUyAsDZ4RgB9WCNGkRKZAWBs8IyVNqeR1jd7VyFIodBwm1PI6xu9q5CkUOg5U+rBGjSIlMgLA2eEYAfVgjRpESmQFgbPCMlTankdY3e1chSKHQcJtTyOsbvauQpFDoOVPqwRo0iJTICwNnhGAH1YI0aREpkBYGzwjJU2p5HWN3tXIUih0HCbU8jrG72rkKRQ6DlT6sEaNIiUyAsDZ4RgB9WCNGkRKZAWBs8IyVNqeR1jd7VyFIodBwm1PI6xu9q5CkUOg5U+rBGjSIlMgLA2eEYAfVgjRpESmQFgbPCMlTankdY3e1chSKHQcJtTyOsbvauQpFDoOVPqwRo0iJTICwNnhGAH1YI0aREpkBYGzwjJU2p5HWN3tXIUih0HCbU8jrG72rkKRQ6DlT6sEaNIiUyAsDZ4RgB9WCNGkRKZAWBs8IyVNqeR1jd7VyFIodBwm1PI6xu9q5CkUOg5U+rBGjSIlMgLA2eEYAfVgjRpESmQFgbPCMlTankdY3e1chSKHQcJtTyOsbvauQpFDoOVPqwRo0iJTICwNnhGAH1YI0aREpkBYGzwjP3SleWItI1kNX0/cMkTankdY3e1chSKHQc7COJIl9sa0Cb+uAc8YxgEEutDFtB0SisLsOn6grWY02p5HWN3tXIUih0HMS7M0u9EjvYZCp4PoSt5e+rBGjSIlMgLA2eEYAfVgjRpESmQFgbPCMlTankdY3e1chSKHQcJtTyOsbvauQpFDoOVPqwRo0iJTICwNnhGAH1YI0aREpkBYGzwjJU2p5HWN3tXIUih0HCbU8jrG72rkKRQ6DlT6sEaNIiUyAsDZ4RgB9WCNGkRKZAWBs8IyVNqeR1jd7VyFIodBwm1PI6xu9q5CkUOg5U+rBGjSIlMgLA2eEYAfVgjRpESmQFgbPCMlTankdY3e1chSKHQcJtTyOsbvauQpFDoOVPqwRo0iJTICwNnhGAH1YI0aREpkBYGzwjJU2p5HWN3tXIUih0HCbU8jrG72rkKRQ6DlT6sEaNIiUyAsDZ4RgB9WCNGkRKZAWBs8IyVNqeR1jd7VyFIodBwm1PI6xu9q5CkUOg5U+rBGjSIlMgLA2eEYAfVgjRpESmQFgbPCMlTankdY3e1chSKHQcJtTyOsbvauQpFDoOVPqwRo0iJTICwNnhGAH1YI0aREpkBYGzwjJU2p5HWN3tXIUih0HCbU8jrG72rkKRQ6DnbeO8GfIbCw6sVN9ffZpf35mWFhc4pcws7ODnUm8klvb/W98RXTpyqyUILNslb0uPPRtp60RD/AFD2fu5MYNvx8q+MnUoEIjKlQOfTNreL8ZB4vWEEQtv85z9WOReofT0HmIfmooXajFxv+/8AC87/AHvgLqUsBVS3qa16vrNf8X/AvauJ8b35LLKR1NHpxttaLzqca4vca9fVgjRpESmQFgbPCMlTankdY3e1chSKHQczbA3tbbOluAq3u9rKQOjMj6sEaNIiUyAsDZ4RnnmvQq21WVGtFxlF5NPY01vTRGmnF5PeH1YI0aREpkBYGzwjJU2p5HWN3tXIUih0HCbU8jrG72rkKRQ6DlT6sEaNIiUyAsDZ4Rlo+B9WCNGkRKZAWBs8IyVNqeR1jd7VyFIodBwm1PI6xu9q5CkUOg5U+rBGjSIlMgLA2eEYAfVgjRpESmQFgbPCMlTankdY3e1chSKHQcJtTyOsbvauQpFDoOVPqwRo0iJTICwNnhGAH1YI0aREpkBYGzwjJU2p5HWN3tXIUih0HCbU8jrG72rkKRQ6DlT6sEaNIiUyAsDZ4RgB9WCNGkRKZAWBs8IyVNqeR1jd7VyFIodBwm1PI6xu9q5CkUOg5U+rBGjSIlMgLA2eEYAfVgjRpESmQFgbPCMlTankdY3e1chSKHQcJtTyOsbvauQpFDoOVPqwRo0iJTICwNnhGAH1YI0aREpkBYGzwjJU2p5HWN3tXIUih0HCbU8jrG72rkKRQ6DlT6sEaNIiUyAsDZ4RgB9WCNGkRKZAWBs8IyVNqeR1jd7VyFIodBwm1PI6xu9q5CkUOg5U+rBGjSIlMgLA2eEYAfVgjRpESmQFgbPCMlTankdY3e1chSKHQcJtTyOsbvauQpFDoOVPqwRo0iJTICwNnhGAH1YI0aREpkBYGzwjJU2p5HWN3tXIUih0HCbU8jrG72rkKRQ6DlT6sEaNIiUyAsDZ4RgB9WCNGkRKZAWBs8IyVNqeR1jd7VyFIodBwm1PI6xu9q5CkUOg5U+rBGjSIlMgLA2eEYAfVgjRpESmQFgbPCMlTankdY3e1chSKHQcJtTyOsbvauQpFDoOVPqwRo0iJTICwNnhGAH1YI0aREpkBYGzwjP3SleWItI1kNX0/cMkTankdY3e1chSKHQc7COJIl9sa0Cb+uAc8YxgEEutDFtB0SisLsOn6grWY02p5HWN3tXIUih0HMS7M0u9EjvYZCp4PoSt5e+rBGjSIlMgLA2eEYAfVgjRpESmQFgbPCMlTankdY3e1chSKHQcJtTyOsbvauQpFDoOVPqwRo0iJTICwNnhGAH1YI0aREpkBYGzwjJU2p5HWN3tXIUih0HCbU8jrG72rkKRQ6DlT6sEaNIiUyAsDZ4RgB9WCNGkRKZAWBs8IyVNqeR1jd7VyFIodBwm1PI6xu9q5CkUOg5U+rBGjSIlMgLA2eEYAfVgjRpESmQFgbPCMlTankdY3e1chSKHQcJtTyOsbvauQpFDoOVPqwRo0iJTICwNnhGAH1YI0aREpkBYGzwjJU2p5HWN3tXIUih0HCbU8jrG72rkKRQ6DlT6sEaNIiUyAsDZ4RgB9WCNGkRKZAWBs8IyVNqeR1jd7VyFIodBwm1PI6xu9q5CkUOg5U+rBGjSIlMgLA2eEYAfVgjRpESmQFgbPCMlTankdY3e1chSKHQcJtTyOsbvauQpFDoOdt47wZ8hsCHViIb6++zS/vzMsLC5xS5hZ2cHOpN5JLe3+t74iuFOVWShBZtjx3gz5DYEOrFTDvvs0v782H4vxkHi9ZYIhbV95z9WOPF+Mg8XrLDELavvOR1jntPGfC/4jea1tDc8T6I81uQeVLLpSQ6buuyVFt7CB96qN1+Rz2PoDoFYaC2qub2UXczX1pNpKPHqxz4lxve8s9xOMMwynh8PGVWtd9nsR5fGe10/g38Rdr0/531PL6Z3NPxvp1Cd2faiaJVcSKhjBI64Li1+oF545tfYWMTNBIIz9HKmv1zpVG7t7lyVGalqvJ5NPJ5Z5e/Jpm4jOMs9VnReofTsHl4vmoqpsxi0f9/781zON7W2zpblqfd7WUqBYz6S9R/Cf1b6X9I+P9Z+Tj1To75jX2RTBpdcyJ8yMSr/AJvuT7w+vM1n6h9PQeYh+aihdqMXG/7/AN+cd8Ing8tNMqEsVwZrymOaeW6plxP+JcT49z2ZNaDFcLhexde3+0t/t/M16+rBGjSIlMgLA2eEZKm1PI6xu9q5CkUOg5mnG9rbZ0twFT7vYykD6ZkfVgjRpESmQFgbPCM8k16FW2qyo1ouMovJp7Gmt6ZDGnF5MPqwRo0iJTICwNnhGSptTyOsbvauQpFDoOE2p5HWN3tXIUih0HKn1YI0aREpkBYGzwjLR8D6sEaNIiUyAsDZ4RkqbU8jrG72rkKRQ6DhNqeR1jd7VyFIodByp9WCNGkRKZAWBs8IwA+rBGjSIlMgLA2eEZKm1PI6xu9q5CkUOg4TankdY3e1chSKHQcqfVgjRpESmQFgbPCMAPqwRo0iJTICwNnhGSptTyOsbvauQpFDoOE2p5HWN3tXIUih0HKn1YI0aREpkBYGzwjAD6sEaNIiUyAsDZ4RkqbU8jrG72rkKRQ6DhNqeR1jd7VyFIodByp9WCNGkRKZAWBs8IwA+rBGjSIlMgLA2eEZKm1PI6xu9q5CkUOg4TankdY3e1chSKHQcqfVgjRpESmQFgbPCMAPqwRo0iJTICwNnhGSptTyOsbvauQpFDoOE2p5HWN3tXIUih0HKn1YI0aREpkBYGzwjAD6sEaNIiUyAsDZ4RkqbU8jrG72rkKRQ6DhNqeR1jd7VyFIodByp9WCNGkRKZAWBs8IwA+rBGjSIlMgLA2eEZKm1PI6xu9q5CkUOg4TankdY3e1chSKHQcqfVgjRpESmQFgbPCMAPqwRo0iJTICwNnhGSptTyOsbvauQpFDoOE2p5HWN3tXIUih0HKn1YI0aREpkBYGzwjAD6sEaNIiUyAsDZ4RkqbU8jrG72rkKRQ6DhNqeR1jd7VyFIodByp9WCNGkRKZAWBs8IwA+rBGjSIlMgLA2eEZ+6UryxFpGshq+n7hkibU8jrG72rkKRQ6DnYRxJEvtjWgTf1wDnjGMAgl1oYtoOiUVhdh0/UFazGm1PI6xu9q5CkUOg5iXZml3okd7DIVPB9CVvL31YI0aREpkBYGzwjAD6sEaNIiUyAsDZ4RkqbU8jrG72rkKRQ6DhNqeR1jd7VyFIodByp9WCNGkRKZAWBs8IwA+rBGjSIlMgLA2eEZKm1PI6xu9q5CkUOg4TankdY3e1chSKHQcqfVgjRpESmQFgbPCMAPqwRo0iJTICwNnhGSptTyOsbvauQpFDoOE2p5HWN3tXIUih0HKn1YI0aREpkBYGzwjAD6sEaNIiUyAsDZ4RkqbU8jrG72rkKRQ6DhNqeR1jd7VyFIodByp9WCNGkRKZAWBs8IwA+rBGjSIlMgLA2eEZKm1PI6xu9q5CkUOg4TankdY3e1chSKHQcqfVgjRpESmQFgbPCMAPqwRo0iJTICwNnhGSptTyOsbvauQpFDoOE2p5HWN3tXIUih0HKn1YI0aREpkBYGzwjAD6sEaNIiUyAsDZ4Rnb+kfU40Z/2PdC/LlIqQDoP7/wB2eeTankdY3e1chSKHQcqfVgiRpESmQFgbPCM3ujekN5oviMMSsn9aO9Pc096fsfZvL9tcztKqq096NtI6sFkRgwPQR9Dm9vEfaH9M6q6M/k/RPlJtr+59fTnkW1vMLBFLrLF8tXhT5R+VJXSxL/jwXnyV6V9Wyasi6PkHLQuaRv8ARP8ADPfqyuodGBU9BGezsBxnBvCJh8LqGecdko6zUoN708ms08s09zyz3rZPLW5oYpSUuNb1nuPoX1t9qjR9bemvN+L3PROxr7/kdA+K1p4vJD5MOr8+OVffGY7kluOi/uF39BmpvI/ECXyPpWH0q3pvxMKQrGv7ZG2z89vb+JDSmPv40g/dWeUxkhsMAw/DYeLtoaqz1vtSe3LLjfs3bjLp21KksoL28ZtT138bY/WfoDS9JJ6fk1t8ya0vk959oOmy2vD8mP5cYUfL+702zWfpX0zU21tQ6cLTzuFRfzxtbUOnC087hVUfjngPUPmJfKszWViito1v8R9CfzyJaW6V4V4OsOcaUc6s83CGbbb5Xnm1FfkjAvr6jhdPVh9p7l+PuMPqTcj8zO20YynylPyyrFTz86+uefj98kixvNKVYgEfMbo/XMqbU8jrG72rkKRQ6DlT6sEaNIiUyAsDZ4RnjHF8VusbvamIXstapN5t7vgvYlsRBKtWdebqTebZjk8dqxxtIgkDKCQfmtw/rkkfvkkWN5pSrEAj5jdH65lTankdY3e1chSKHQcqfVgjRpESmQFgbPCM1xbMcnjtWONpEEgZQSD81uH9ckj98kixvNKVYgEfMbo/XMqbU8jrG72rkKRQ6DlT6sEaNIiUyAsDZ4RgGOTx2rHG0iCQMoJB+a3D+uSR++SRY3mlKsQCPmN0frmVNqeR1jd7VyFIodByp9WCNGkRKZAWBs8IwDHJ47VjjaRBIGUEg/Nbh/XJI/fJIsbzSlWIBHzG6P1zKm1PI6xu9q5CkUOg5U+rBGjSIlMgLA2eEYBjk8dqxxtIgkDKCQfmtw/rkkfvkkWN5pSrEAj5jdH65lTankdY3e1chSKHQcqfVgjRpESmQFgbPCMAxyeO1Y42kQSBlBIPzW4f1ySP3ySLG80pViAR8xuj9cyptTyOsbvauQpFDoOVPqwRo0iJTICwNnhGAY5PHascbSIJAygkH5rcP65JH75JFjeaUqxAI+Y3R+uZU2p5HWN3tXIUih0HKn1YI0aREpkBYGzwjAMcnjtWONpEEgZQSD81uH9ckj98kixvNKVYgEfMbo/XMqbU8jrG72rkKRQ6DlT6sEaNIiUyAsDZ4RgGOTx2rHG0iCQMoJB+a3D+uQnYniIYzu0d06sbtfx/flCbU8jrG72rkKRQ6DmTyGprpozusdFY2INn8sAzPqwRo0iJTICwNnhGSptTyOsbvauQpFDoOE2p5HWN3tXIUih0HKn1YI0aREpkBYGzwjAD6sEaNIiUyAsDZ4RkqbU8jrG72rkKRQ6DhNqeR1jd7VyFIodByp9WCNGkRKZAWBs8IwA+rBGjSIlMgLA2eEZ+6UryxFpGshq+n7hkibU8jrG72rkKRQ6DnYRxJEvtjWgTf1wDnjGMAgl1oYtoOiUVhdh0/UFazGm1PI6xu9q5CkUOg5iXZml3okd7DIVPB9CVvL31YI0aREpkBYGzwjAD6sEaNIiUyAsDZ4RkqbU8jrG72rkKRQ6DhNqeR1jd7VyFIodByp9WCNGkRKZAWBs8IwA+rBGjSIlMgLA2eEZKm1PI6xu9q5CkUOg4TankdY3e1chSKHQcqfVgjRpESmQFgbPCMAPqwRo0iJTICwNnhGSptTyOsbvauQpFDoOE2p5HWN3tXIUih0HKn1YI0aREpkBYGzwjAD6sEaNIiUyAsDZ4RkqbU8jrG72rkKRQ6DhNqeR1jd7VyFIodByp9WCNGkRKZAWBs8IwA+rBGjSIlMgLA2eEZKm1PI6xu9q5CkUOg4TankdY3e1chSKHQcqfVgjRpESmQFgbPCMAPqwRo0iJTICwNnhGSptTyOsbvauQpFDoOE2p5HWN3tXIUih0HKn1YI0aREpkBYGzwjAD6sEaNIiUyAsDZ4RkqbU8jrG72rkKRQ6DhNqeR1jd7VyFIodByp9WCNGkRKZAWBs8IwA+tBEjSIlMgLA2eEZ3fpT1bJqSroeRf3QuaR/9E/wzzSbU8jrG72rkKRQ6DlT6sESNIiUyAsDZ4Rkg0Z0mv9FL+N/YSya3rikuNNcny3oyLW6qWlRVaT2m2kdXUOjAqRYIzHtbUGnC0+w4VF/PPA+mfWLaB/ZfJuWgP81/9D//AJn56h8xL5VmbqxRAtGt/iPxP556jvfDLg1LAVidv9avLYqXGpcet/CuXj4tueUuqY/RVt4yH23xe3uHqHzMvlSzWViito1v8R+JzzybU8jrG72rkKRQ6DhNqeR1jd7VyFIodByp9WCNGkRKZAWBs8IzyhjOM3uP3s7+/nrVJdnIkuJLiRDq1adxN1KjzbD6sEaNIiUyAsDZ4RkqbU8jrG72rkKRQ6DhNqeR1jd7VyFIodByp9WCNGkRKZAWBs8IzVloPqwRo0iJTICwNnhGSptTyOsbvauQpFDoOE2p5HWN3tXIUih0HKn1YI0aREpkBYGzwjAD6sEaNIiUyAsDZ4RkqbU8jrG72rkKRQ6DhNqeR1jd7VyFIodByp9WCNGkRKZAWBs8IwA+rBGjSIlMgLA2eEZKm1PI6xu9q5CkUOg4TankdY3e1chSKHQcqfVgjRpESmQFgbPCMAPqwRo0iJTICwNnhGSptTyOsbvauQpFDoOE2p5HWN3tXIUih0HKn1YI0aREpkBYGzwjAD6sEaNIiUyAsDZ4RkqbU8jrG72rkKRQ6DhNqeR1jd7VyFIodByp9WCNGkRKZAWBs8IwA+rBGjSIlMgLA2eEZKm1PI6xu9q5CkUOg4TankdY3e1chSKHQcqfVgjRpESmQFgbPCMAPqwRo0iJTICwNnhGSptTyOsbvauQpFDoOE2p5HWN3tXIUih0HKn1YI0aREpkBYGzwjAD6sEaNIiUyAsDZ4RkqbU8jrG72rkKRQ6DhNqeR1jd7VyFIodByp9WCNGkRKZAWBs8IwA+rBGjSIlMgLA2eEZ123t7D6sqNJYZCCKGZ02p5HWN3tXIUih0HMnkNTXTRndY6KxsQbP5YBmfVgjRpESmQFgbPCMlTankdY3e1chSKHQcJtTyOsbvauQpFDoOVPqwRo0iJTICwNnhGAH1YI0aREpkBYGzwjJU2p5HWN3tXIUih0HCbU8jrG72rkKRQ6DlT6sEaNIiUyAsDZ4RgB9WCNGkRKZAWBs8Iz90pXliLSNZDV9P3DJE2p5HWN3tXIUih0HOwjiSJfbGtAm/rgHPGMYBBLrQxbQdEorC7Dp+oK1mNNqeR1jd7VyFIodBzEuzNLvRI72GQqeD6EreXvqwRo0iJTICwNnhGAH1YI0aREpkBYGzwjJU2p5HWN3tXIUih0HCbU8jrG72rkKRQ6DlT6sEaNIiUyAsDZ4RgB9WCNGkRKZAWBs8IyVNqeR1jd7VyFIodBwm1PI6xu9q5CkUOg5U+rBGjSIlMgLA2eEYAfVgjRpESmQFgbPCMlTankdY3e1chSKHQcJtTyOsbvauQpFDoOVPqwRo0iJTICwNnhGAH1YI0aREpkBYGzwjJU2p5HWN3tXIUih0HCbU8jrG72rkKRQ6DlT6sEaNIiUyAsDZ4RgB9WCNGkRKZAWBs8IyVNqeR1jd7VyFIodBwm1PI6xu9q5CkUOg5U+rBGjSIlMgLA2eEYAfVgjRpESmQFgbPCMlTankdY3e1chSKHQcJtTyOsbvauQpFDoOVPqwRo0iJTICwNnhGAH1YI0aREpkBYGzwjJU2p5HWN3tXIUih0HCbU8jrG72rkKRQ6DlT6sEaNIiUyAsDZ4RgB9WCNGkRKZAWBs8IyVNqeR1jd7VyFIodBwm1PI6xu9q5CkUOg5U+rBGjSIlMgLA2eEYBi3dWCPUmdI6ZUJBs/XMSbU8jrG72rkKRQ6DmLY2p5IXR5LVhRFD6Ze+rBGjSIlMgLA2eEYAfVgjRpESmQFgbPCMlTankdY3e1chSKHQcJtTyOsbvauQpFDoOVPqwRo0iJTICwNnhGAH1YI0aREpkBYGzwjJU2p5HWN3tXIUih0HCbU8jrG72rkKRQ6DlT6sEaNIiUyAsDZ4RgB9WCNGkRKZAWBs8IyVNqeR1jd7VyFIodBwm1PI6xu9q5CkUOg5U+rBGjSIlMgLA2eEYAfVgjRpESmQFgbPCMlTankdY3e1chSKHQcJtTyOsbvauQpFDoOVPqwRo0iJTICwNnhGAH1YI0aREpkBYGzwjJU2p5HWN3tXIUih0HCbU8jrG72rkKRQ6DlT6sEaNIiUyAsDZ4RgB9WCNGkRKZAWBs8IyVNqeR1jd7VyFIodBwm1PI6xu9q5CkUOg5U+rBGjSIlMgLA2eEYAfVgjRpESmQFgbPCMlTankdY3e1chSKHQcJtTyOsbvauQpFDoOVPqwRo0iJTICwNnhGAH1YI0aREpkBYGzwjJU2p5HWN3tXIUih0HCbU8jrG72rkKRQ6DlT6sEaNIiUyAsDZ4RgB9WCNGkRKZAWBs8IyVNqeR1jd7VyFIodBz0/oT0Z5f19sbWrp+Q14P2ZFd/nKaZSaoUM9l/g9ebHY/LeOVh1TcnD+mYNbErW3m6dSeTXvNnb4PfXVNVaNPOL4813msH1YI0aREpkBYGzwjJU2p5HWN3tXIUih0HNsf3gPVZ5J6g8aynjD2v0f7Ofv+D15sdj8t45WHVNycP6Za88WPOLofcXuD+Jc0+ld5rB9WCNGkRKZAWBs8IzrN7fkGrIk04CupXoAvn0zcP94D1WeSeoPGsp4w9r9H+zmHe+zf5jd1Xg/lbxylh91rkNH9MeeLHnF0PuHB/EuafSu81osem8J2Nb2t7QSrKxIsZgTankdY3e1chSKHQc2pr/Z59T68Kaw8/wCN+UgC+32v0f7OZf8AB682Ox+W8crDqm5OH9MeeLHnF0PuHB/EuafSu81g+rBGjSIlMgLA2eEZKm1PI6xu9q5CkUOg5tj+8B6rPJPUHjWU8Ye1+j/Zz9/wevNjsflvHKw6puTh/THnix5xdD7hwfxLmn0rvNYPqwRo0iJTICwNnhGfulK8sRaRrIavp+4Zs3+8B6rPJPUHjWU8Ye1+j/Zzx/qb0rN6O8o3htiaKVwgkLR37e/19/DL1DEba5n4ulPN/Ex7nCbyzp+Nrwyjy5rvOqxjGZpriCXWhi2g6JRWF2HT9QVrMabU8jrG72rkKRQ6DmJdmaXeiR3sMhU8H0JW8vfVgjRpESmQFgbPCMAPqwRo0iJTICwNnhGSptTyOsbvauQpFDoOE2p5HWN3tXIUih0HKn1YI0aREpkBYGzwjAD6sEaNIiUyAsDZ4RkqbU8jrG72rkKRQ6DhNqeR1jd7VyFIodByp9WCNGkRKZAWBs8IwA+rBGjSIlMgLA2eEZKm1PI6xu9q5CkUOg4TankdY3e1chSKHQcqfVgjRpESmQFgbPCMAPqwRo0iJTICwNnhGSptTyOsbvauQpFDoOdh6dhbzPmtTxe1Mwi2ZBG/tABo/wCrNnj4PenVIZdvcBHQfcOH9M1OIY3aYZNU7hvNrPYszR4ppFY4PUVK6bTaz2LM1U+rBGjSIlMgLA2eEZKm1PI6xu9q5CkUOg5uE/CXwzAq3lN4g8I+50f7OcR8HvTqkMu3uAjoPuHD+ma/hbhvpPoNXw5wj0pdVmqn1YI0aREpkBYGzwjJU2p5HWN3tXIUih0HNwn4S+GYFW8pvEHhH3Oj/ZziPg96dUhl29wEdB9w4f0xwtw30n0DhzhHpS6rNVPqwRo0iJTICwNnhGSptTyOsbvauQpFDoObhPwl8MwKt5TeIPCPudH+znEfB706pDLt7gI6D7hw/pjhbhvpPoHDnCPSl1WaqfVgjRpESmQFgbPCMlTankdY3e1chSKHQc3CfhL4ZgVbym8QeEfc6P8AZziPg96dUhl29wEdB9w4f0xwtw30n0DhzhHpS6rNPeXbS0NRpHiYe61VhZAb8L7n5q78u2IyWb5cpAoqBYObg2Pg74HbiaDY8jvOjfUH2f2c/V+DvpxK+Xt7ilfpTDn/ACxwtw30n0DhzhHpS6rNVvqwRo0iJTICwNnhGSptTyOsbvauQpFDoObhPwl8MwKt5TeIPCPudH+znEfB706pDLt7gI6D7hw/pjhbhvpPoHDnCPSl1WaqfVgjRpESmQFgbPCMlTankdY3e1chSKHQc3CfhL4ZgVbym8QeEfc6P9nOI+D3p1SGXb3AR0H3Dh/THC3DfSfQOHOEelLqs1U+rBGjSIlMgLA2eEZKm1PI6xu9q5CkUOg5uE/CXwzAq3lN4g8I+50f7OcR8HvTqkMu3uAjoPuHD+mOFuG+k+gcOcI9KXVZqp9WCNGkRKZAWBs8IyVNqeR1jd7VyFIodBzcJ+EvhmBVvKbxB4R9zo/2c4j4PenVIZdvcBHQfcOH9McLcN9J9A4c4R6UuqzVT6sEaNIiUyAsDZ4RkqbU8jrG72rkKRQ6Dm3dn4U+Hj15HPk95vahNH2UefT+bmrZtSCEO8aUyWVNn6jNnh2LW2Ka3k7b1cs81lvNxhWOWmM6/krb1cs81lvz7j8fVgjRpESmQFgbPCMlTankdY3e1chSKHQcJtTyOsbvauQpFDoOVPqwRo0iJTICwNnhGbM3AfVgjRpESmQFgbPCMlTankdY3e1chSKHQcJtTyOsbvauQpFDoOVPqwRo0iJTICwNnhGAH1YI0aREpkBYGzwjJU2p5HWN3tXIUih0HCbU8jrG72rkKRQ6DlT6sEaNIiUyAsDZ4RgG2fs/wxQ+V8r8tavXS+/0s3bmjPs7TSzeU8v8xrrXSuf0s3nnP8b/AH6fw+SOqaOfdtP4/NjGMZqjeDGPrntNH4PfELyLay6vglY7UP7QobaiX2JSkGS2HyyQ6EB6J9wq7yqFOdT7KzKJ1YUvttL3ni8Z6/znwm9f+m/At6k814B9XRQoHZpoy6e5iqlow3vUFlYWRVg55DE4SpvKayFOpCqs4NNewYxjKSsZ8+fGb/ttJ/6eP/rn0Hnz58Zv+20n/p4/+ubvR/8AfV7mRzSn7ufvR4XGMZOjmRBLrQxbQdEorC7Dp+oK1mNNqeR1jd7VyFIodBzEuzNLvRI72GQqeD6EreXvqwRo0iJTICwNnhGAH1YI0aREpkBYGzwjJU2p5HWN3tXIUih0HCbU8jrG72rkKRQ6DlT6sEaNIiUyAsDZ4RgB9WCNGkRKZAWBs8IyVNqeR1jd7VyFIodBwm1PI6xu9q5CkUOg5U+rBGjSIlMgLA2eEYAfVgjRpESmQFgbPCMlTankdY3e1chSKHQcJtTyOsbvauQpFDoOVPqwRo0iJTICwNnhGAd16Q1YI/UvjnSOiJ1rp/PN758/eitqeT1T41HksGdb4Pzz6V9MemfM+sfPafpr0/qrseQ33McETSLGGYAn+cxCjgP1Oc30yi53lOMVm3H8Wcl0/jKd/RjFZtx/FnV4zZP+Dv8AFg7W7qL6f1mbQgj2HdfJaxjlSRGdfkuH9sxKqxqMsaH0zst37MfxH1vP7vhNaTwu0vj5oop518trLQdY2LiNnDlV+avuIFDIurC6az8W+h/riIYsMvGs/FS5Nz9vczUmM3X6p+yZ8TPA7+xp+Kk8X5pNQVLNBuwxKXtwEQSODIx+VJ91QW+6eZqCDwvmNmGTZ1fFbc0MRIeWOBmRSPrbAUKyitaV7eWrVg0W7iyuLWWrWg0/dyb8uUjxnuvSXwa9YetfEQ+T8Eumz7PzpIodjaj1/dBCQJZjJIyoqqzKvTZJ/cc7Xw/2cPil5XfTTm8Vq6SfyqviZpNjehUxSGRYy/s93uaMMwHvUFb4DfMqjZ3E0nGDefsKoYfdVEnCm2nu2GsMZ7j1Z8G/W3o/xU/n/JQaE3jYNw6TT6vkYJyH9zhS0aOXRW+WxBYAGuZJ6o+G3l/SvgPTvndre0dweo1lbXh0phO0fs9v3WKWvuPvH3QbH0NHmUStq0M9aLWW1/IonZ16eevBrJZvPkbyXaeSxnp934aeuPGeV8T4XyPp7Z1dvzYiOiswCCb5tewe48BNjhIr8az0Ox9nj4r6/k9jxDeB1n2daBZ3+X5LWdGDFlVEdXKvISjgRqS5KsK4c+xta8s9WD2exn2NlczzUacnl7Ga3xmz/M/Z2+IXilkeD+SN9YfHJ5KUa/ldYuI2j+YwVPf7nZV6wUGh36EE9B4L4ex+ofR/lvU3jvU2kdrwusdzb8c8MqusIcJYkK/LLEsCFBsjPsrSvGWrKLT279m7flyn2VjcQlqTg09r27N2/LPf8Dx+M7yf0P6s1/TMPrGfwO4nh9idtePaMR9hdQpP9Qp1pvoTwHhz1LfZ/wDimmt4ncbwWt8nzRjGs/8AKOvSh4jKrS/f/wASpjVmuT2igcpjbVp/Zg38Hx7ukohaXFT7EG93E+Pd0musZtWT7NnxHj0dOZv5Fj29vd2dH9km8vqxMjQiM+8s8gUq3zV9pB7a/wCkt9D6O+Fm/wCqfVe76K2/Kw+K8xqO8K68uvLMJJUv3L7o1ZUA9ptmIH0yt2dxGSjKDTe7PYXJYfdRlGEoNN7s9nty28fsPEYz2K/DLykvnfTnhdXf1p19SfLEGygYxxkuUcPy/uMD7iOULHMzel/hi/qzW86fHeotQbng45p21mgmqWGIWz/N9vy0B7QZgSRX4jKFbVZPVS2/ln8iiNpWlLVUdvw5M/keB3f/AJOf/wC23/tnzadmeTYMTvas/tIofQnPpLd/+Tn/APtt/wC2fO8+tBH8yVEpltgbP1GTjQjdW/p/E6N4Ot1x/T/+ji+rBGjSIlMgLA2eEZKm1PI6xu9q5CkUOg4TankdY3e1chSKHQcqfVgjRpESmQFgbPCMnh0wPqwRo0iJTICwNnhGSptTyOsbvauQpFDoOE2p5HWN3tXIUih0HKn1YI0aREpkBYGzwjAD6sEaNIiUyAsDZ4RkqbU8jrG72rkKRQ6DhNqeR1jd7VyFIodByp9WCNGkRKZAWBs8IwDbP2f4YofK+V+WtXrpff6WbtzRn2dppZvKeX+Y11rpXP6Wbzzn+N/v0/h8kdU0c+7afx+bGMYzVG8P1SVIYfUG82fB8bY03tjyG16K0tibyOlDpeSY7ky/tKxCL5ZABpKMSk0O2c1fjLlOrOl9llqrQp1vtr9fA2Z6y+OvnvW2h5LT8n4nUjbykEEMskbMK+VK8lgfTpkI/wBQzWeMYqVZ1nrTebFGhTt46tNZIYxjLZdGfPnxm/7bSf8Ap4/+ufQefPnxm/7bSf8Ap4/+ubvR/wDfV7mRzSn7ufvR4XGMZOjmRBLrQxbQdEorC7Dp+oK1mNNqeR1jd7VyFIodBzEuzNLvRI72GQqeD6EreXvqwRo0iJTICwNnhGAH1YI0aREpkBYGzwjJU2p5HWN3tXIUih0HCbU8jrG72rkKRQ6DlT6sEaNIiUyAsDZ4RgB9WCNGkRKZAWBs8IyVNqeR1jd7VyFIodBwm1PI6xu9q5CkUOg5U+rBGjSIlMgLA2eEYAfVgjRpESmQFgbPCMlTankdY3e1chSKHQcJtTyOsbvauQpFDoOVPqwRo0iJTICwNnhGAd16Q1YI/UvjnSOiJ1rp/PPpL0V6r3PRHqfR9UaGtDPPos7JHLfsYsjL2iD9Gz5j9FbU8nqnxqPJYM63wfnn0DnONMpOF7SlHeo/izk2n85U8Qozi8mo5rpZuHR+0v6m0vHwaJ9O+LlOjrQRaMrmS9aWKJohMAGpmIf6Na2BzOwl+1R5mY7UzehfBrtbrFp9iOSdWkJSNT7gGpv/AIYIsGrNZo7GRlYldJZKfy7iHrF72KyVTsXcbr8h9qb1Z5HY19mX054lW1/Jr5RQpkouDOfafvfT/KX/AH8X99698N8SPUHgfEbXg9DT8E+tts7O214TU2Zh7xR9s0sbSLz6Uwo9Hc8tjLc724qNOU3mWqmIXVZqU5vNfjv3GxvB/Fp/C+iF9Pp49Zd6HW2/GRyNfy/2TZkWVzwghxInOEEMfy76B/tPeppN7+V29M+JPkV3Rsx7JaW0h/aE2Drhfd7faXT+cR7qJF5pnGVRv7iCyjLLi6NxVDE7qmlGE8lklxcW42r65+Pu/wCtfS2z6V/uP8T4uDbmjnlfUkl6yFiCEZioJ95s1Z5eeJ8l6y3/ACPpnwXpkwRwx+Bk2JIJ42YSMZWUm+/gVFVnQYy3Vuq1Ztzlnmsvhnn8y1Wva9duVSWbay4t2efz2nqj8TfV+157wvn/ADXlZvJy+CaE6key5KBYq9qkD+qifqfzz2Xj/tHeodGRHf054zYEE8W5riR5ai2opZZY5hTCyrTvw/dIqwazUeM+wvK9N5xkyqnf3NJtxm838fmbnh+0z5aHww8Yvorw3z/2N9NtxZJlldW1/kEv7WAak+gIIBsgC88bF8RtSL4dn0Avo/RQtI0z+Rj2Jknlcm1MgDe1wosKCKFnlm88VjKp3tep9qWezLctz+BVPEbmp9uWexrctz38Xs953U3rX1VsemofSE3ndt/Ea87bEeqZD7A7BQf6xSLQ+gqwO572D7Q/qCOD9jm9P+Nm1JF1Y54WeQCaKDTfVCEhrAZHLEijYFVmqMZRTuq1J5xk/wDwt0724ovOE3xdm7ebq0/tOeV17Gz6H8LsBNl59UmWZH1lKQqER1YMABrxi7si7JvPKeF+LUnifW3kvXcvpnT2fIb2w21Fe1PEuvIWLGgjj3r3qvYOeAxlyV/cTacpZ5bVsXcXJ4ldTacpZ5PNbFv6DY2x8Wm0Z/Ey+C0Vkbx3i9rWD7KBSu1s+75sqKhoe0t9z+oWM6z0P8SpvQun5JdDwGpsb/kIZoP22aaW0jkT2MpiDfLfhJHuU0Tf4DPGYyjyqrrKSe1bvl+BR5bX11NPat3s2JfJIwbv/wAnP/8Abb/2z5tOzPJsGJ3tWf2kUPoTn0lu/wDyc/8A9tv/AGz53n1oI/mSolMtsDZ+oybaEbq39P4nRPB1uuP6f/0cX1YI0aREpkBYGzwjJU2p5HWN3tXIUih0HCbU8jrG72rkKRQ6DlT6sEaNIiUyAsDZ4Rk8OmB9WCNGkRKZAWBs8IyVNqeR1jd7VyFIodBwm1PI6xu9q5CkUOg5U+rBGjSIlMgLA2eEYAfVgjRpESmQFgbPCMlTankdY3e1chSKHQcJtTyOsbvauQpFDoOVPqwRo0iJTICwNnhGAbZ+z/DFD5Xyvy1q9dL7/SzdufP3wH9ReP8AH+b3oPK70cL7UKpD76UMwN1f0z6ABDAMpBB6CMgOORavptrfl8kdT0blGWG00nuz+bP3GMZqDejGM6v1B6m8P6Z033fLbiRKoJCXbt/UPqc+xi5vVis2UynGEXKTySO0zqfKeq/TnhbHk/Ma0DD/ADWe2/QdzRXq/wCNfnPP7J0vCM3j9Fm9v3T/AIxwfzP4Z4jaQSF9qRneUAt72ck3+fckVpo7VqrWry1fZvZFL7SyhRk4W0dd8u5d77D6Nl+L3oiFip8g7AfVljJGdl4r4h+jfMME0fPazSGvuM3tP/PPlJNqeR1jd7VyFIodByt9aGJGljT2sgLA2eEZnS0aoNfVm8/gayGmFwpfXpxa9ma7z7EV1dQyMGB+hBvPn34zf9tpP/Tx/wDXPN+k/if6r9N7MccO8djWLANBL1av8PyOV+uvUkHqvzY8vBC0QeBEZCb9rC77lvDsKr2F4pS2xye1F3F8btsTw9xhslmtj/DlPPYxjJQQogl1oYtoOiUVhdh0/UFazGm1PI6xu9q5CkUOg5iXZml3okd7DIVPB9CVvL31YI0aREpkBYGzwjAD6sEaNIiUyAsDZ4RkqbU8jrG72rkKRQ6DhNqeR1jd7VyFIodByp9WCNGkRKZAWBs8IwA+rBGjSIlMgLA2eEZKm1PI6xu9q5CkUOg4TankdY3e1chSKHQcqfVgjRpESmQFgbPCMAPqwRo0iJTICwNnhGSptTyOsbvauQpFDoOE2p5HWN3tXIUih0HKn1YI0aREpkBYGzwjAO19NfsHjvO6e9sERRwyq7uSaUA9ObbHxA9HMQo87ASeD7rfwzQqbU8jrG72rkKRQ6DlT6sEaNIiUyAsDZ4RmixXAKGLVVVqyaaWWzL8URrGtGLbHK0a1ack0stmXLnxpm8z669KKCx8zEAOn7rfwzgPiB6OYhR52Ak8H3W/hmhU2p5HWN3tXIUih0HKn1YI0aREpkBYGzwjNXwLs+cl2dxpvo9sOdn/AG9xvM+uvSigsfMxADp+638M4D4gejmIUedgJPB91v4ZoVNqeR1jd7VyFIodByp9WCNGkRKZAWBs8IxwLs+cl2dw+j2w52f9vcbzPrr0ooLHzMQA6fut/DOA+IHo5iFHnYCTwfdb+GaFTankdY3e1chSKHQcqfVgjRpESmQFgbPCMcC7PnJdncPo9sOdn/b3G8z669KKCx8zEAOn7rfwzgPiB6OYhR52Ak8H3W/hmhU2p5HWN3tXIUih0HKn1YI0aREpkBYGzwjHAuz5yXZ3D6PbDnZ/29xvJ/XfpKNS7+ahCqLJKtz/AJZxHxA9HMQo87ASeD7rfwzQGxtTyQujyWrCiKH0y99WCNGkRKZAWBs8IxwLs+cl2dw+j2w52f8Ab3G8z669KKCx8zEAOn7rfwzgPiB6OYhR52Ak8H3W/hmhU2p5HWN3tXIUih0HKn1YI0aREpkBYGzwjHAuz5yXZ3D6PbDnZ/29xvM+uvSigsfMxADp+638M4D4gejmIUedgJPB91v4ZoVNqeR1jd7VyFIodByp9WCNGkRKZAWBs8IxwLs+cl2dw+j2w52f9vcbzPrr0ooLHzMQA6fut/DOA+IHo5iFHnYCTwfdb+GaFTankdY3e1chSKHQcqfVgjRpESmQFgbPCMcC7PnJdncPo9sOdn/b3G8z669KKCx8zEAOn7rfwzgPiB6OYhR52Ak8H3W/hmhU2p5HWN3tXIUih0HKn1YI0aREpkBYGzwjHAuz5yXZ3D6PbDnZ/wBvcbu2/W/pZtWZV8xFZRgPut+X9WaJ/appZ/Y0lo70RQ6Cc4ptTyOsbvauQpFDoOVPqwRo0iJTICwNnhGbnCcFo4Rr+Kk3rZb8uLPkXtN/gej9DAtfxEnLXyzzy4s+RLlD6sEaNIiUyAsDZ4RkqbU8jrG72rkKRQ6DhNqeR1jd7VyFIodByp9WCNGkRKZAWBs8IzcG/D6sEaNIiUyAsDZ4RkqbU8jrG72rkKRQ6DhNqeR1jd7VyFIodByp9WCNGkRKZAWBs8IwA+rBGjSIlMgLA2eEZKm1PI6xu9q5CkUOg4TankdY3e1chSKHQcqfVgjRpESmQFgbPCMA/W1oYVaWJCroCykE8Iz03pT4uerfTzRap2huaoYD5Uwuh+4/XPHJtTyOsbvauQpFDoOVPqwRo0iJTICwNnhGWK9tSuY6tWOaMm2vK9nPXoScWb00fjz4do78n4nYhYCyYyGH/PM0nx99HgAQ6u9IxIAHsUf9c+e02p5HWN3tXIUih0HKn1YI0aREpkBYGzwjNVLR+zbzWa+JvI6V38Y5PVfty/M2v6h+OvlJ9eRPB+PTUoEiWQ+5v0+mao8n6j8t5nabb8z5CScufvl/wH4/1ZKm1PI6xu9q5CkUOg5k8hqa6aM7rHRWNiDZ/LNhbWFvafso5Pl4zV3mK3d/srzzXJuXQZn1YI0aREpkBYGzwjJU2p5HWN3tXIUih0HCbU8jrG72rkKRQ6DlT6sEaNIiUyAsDZ4RmYa4PqwRo0iJTICwNnhGSptTyOsbvauQpFDoOE2p5HWN3tXIUih0HKn1YI0aREpkBYGzwjAD6sEaNIiUyAsDZ4Rn7pSvLEWkayGr6fuGSJtTyOsbvauQpFDoOdhHEkS+2NaBN/XAOeMYwCCXWhi2g6JRWF2HT9QVrMabU8jrG72rkKRQ6DmJdmaXeiR3sMhU8H0JW8vfVgjRpESmQFgbPCMAPqwRo0iJTICwNnhGSptTyOsbvauQpFDoOE2p5HWN3tXIUih0HKn1YI0aREpkBYGzwjAD6sEaNIiUyAsDZ4RkqbU8jrG72rkKRQ6DhNqeR1jd7VyFIodByp9WCNGkRKZAWBs8IwA+rBGjSIlMgLA2eEZKm1PI6xu9q5CkUOg4TankdY3e1chSKHQcqfVgjRpESmQFgbPCMAPqwRo0iJTICwNnhGSptTyOsbvauQpFDoOE2p5HWN3tXIUih0HKn1YI0aREpkBYGzwjAD6sEaNIiUyAsDZ4RkqbU8jrG72rkKRQ6DhNqeR1jd7VyFIodByp9WCNGkRKZAWBs8IwA+rBGjSIlMgLA2eEZKm1PI6xu9q5CkUOg4TankdY3e1chSKHQcqfVgjRpESmQFgbPCMAPqwRo0iJTICwNnhGSptTyOsbvauQpFDoOE2p5HWN3tXIUih0HKn1YI0aREpkBYGzwjAD6sEaNIiUyAsDZ4RkqbU8jrG72rkKRQ6DhNqeR1jd7VyFIodByp9WCNGkRKZAWBs8IwDFu6sEepM6R0yoSDZ+uYk2p5HWN3tXIUih0HJPIeUeHXIndij/AHTSjOwhXVm1RuQRMtqXQtd/uNYBlfVgjRpESmQFgbPCMlTankdY3e1chSKHQcJtTyOsbvauQpFDoOVPqwRo0iJTICwNnhGAH1YI0aREpkBYGzwjJU2p5HWN3tXIUih0HCbU8jrG72rkKRQ6DlT6sEaNIiUyAsDZ4RgB9WCNGkRKZAWBs8IyVNqeR1jd7VyFIodBwm1PI6xu9q5CkUOg5U+rBGjSIlMgLA2eEYAfVgjRpESmQFgbPCMlTankdY3e1chSKHQcJtTyOsbvauQpFDoOVPqwRo0iJTICwNnhGAH1YI0aREpkBYGzwjJU2p5HWN3tXIUih0HCbU8jrG72rkKRQ6DlT6sEaNIiUyAsDZ4RgB9WCNGkRKZAWBs8IyVNqeR1jd7VyFIodBwm1PI6xu9q5CkUOg5U+rBGjSIlMgLA2eEYAfVgjRpESmQFgbPCMlTankdY3e1chSKHQcJtTyOsbvauQpFDoOVPqwRo0iJTICwNnhGAH1YI0aREpkBYGzwjJU2p5HWN3tXIUih0HCbU8jrG72rkKRQ6DlT6sEaNIiUyAsDZ4RgB9WCNGkRKZAWBs8IyVNqeR1jd7VyFIodBwm1PI6xu9q5CkUOg5U+rBGjSIlMgLA2eEYAfVgjRpESmQFgbPCMlTankdY3e1chSKHQcJtTyOsbvauQpFDoOVPqwRo0iJTICwNnhGAH1YI0aREpkBYGzwjOu29vYfVlRpLDIQRQzOm1PI6xu9q5CkUOg5x8yNTS0JJGib7wKgizRrl9wCx9WCNGkRKZAWBs8IyVNqeR1jd7VyFIodBzhq+Ql3BGfc3y5SBRUCwctfVgjRpESmQFgbPCMAPqwRo0iJTICwNnhGSptTyOsbvauQpFDoOE2p5HWN3tXIUih0HKn1YI0aREpkBYGzwjAD6sEaNIiUyAsDZ4Rn7pSvLEWkayGr6fuGSJtTyOsbvauQpFDoOdhHEkS+2NaBN/XAOeMYwCCXWhi2g6JRWF2HT9QVrMabU8jrG72rkKRQ6DmJdmaXeiR3sMhU8H0JW8vfVgjRpESmQFgbPCMAPqwRo0iJTICwNnhGSptTyOsbvauQpFDoOE2p5HWN3tXIUih0HKn1YI0aREpkBYGzwjAD6sEaNIiUyAsDZ4RkqbU8jrG72rkKRQ6DhNqeR1jd7VyFIodByp9WCNGkRKZAWBs8IwA+rBGjSIlMgLA2eEZKm1PI6xu9q5CkUOg4TankdY3e1chSKHQcqfVgjRpESmQFgbPCMAPqwRo0iJTICwNnhGSptTyOsbvauQpFDoOE2p5HWN3tXIUih0HKn1YI0aREpkBYGzwjAD6sEaNIiUyAsDZ4RkqbU8jrG72rkKRQ6DhNqeR1jd7VyFIodByp9WCNGkRKZAWBs8IwA+rBGjSIlMgLA2eEZd6d0P5aM6bOw6iMDigdv8A1Z06bU8jrG72rkKRQ6DnrPSUMcMmx8tatVvuWa8nGGaJXoTZW+I43Rt7qClB62afsi2ZR6N8apDLLKCOg/kc5n0prMCrbsxB4RS9H6Z3mMwfGz5TvvAvAPVY9vedAPRvjVIZZZQR0H8jnM+lNZgVbdmIPCKXo/TO8xjxs+UcC8A9Vj2955yf0L4nYiMUjyFW/fmUektUII/2ub2AV7aX6fl9M9OvjPIv7AmhsN8xfetRn7y/mP3ZdrekvUe54De9Ua/iJ28V414o9rZqkjaQkIO/WyrfS/pjxtTlKJaH6Ox2ytoLi6di4zxI9G+NUhlllBHQfyOcz6U1mBVt2Yg8Ipej9M7zGPGz5SvgXgHqse3vOgHo3xqkMssoI6D+RzmfSmswKtuzEHhFL0fpneYx42fKOBeAeqx7e88H5Xxer47YljhBJjX3KxP41edWm1PI6xu9q5CkUOg53HqeWQebaEN9xwoYV9b+uQvqwRo0iJTICwNnhGbCi3KCbPOWklvStMXuKFCOrGM2klxIPqwRo0iJTICwNnhGSptTyOsbvauQpFDoOE2p5HWN3tXIUih0HKn1YI0aREpkBYGzwjLhpA+rBGjSIlMgLA2eEZKm1PI6xu9q5CkUOg4TankdY3e1chSKHQcqfVgjRpESmQFgbPCMAPqwRo0iJTICwNnhGSptTyOsbvauQpFDoOE2p5HWN3tXIUih0HKn1YI0aREpkBYGzwjAD6sEaNIiUyAsDZ4RkqbU8jrG72rkKRQ6DhNqeR1jd7VyFIodByp9WCNGkRKZAWBs8IwA+rBGjSIlMgLA2eEZKm1PI6xu9q5CkUOg4TankdY3e1chSKHQcqfVgjRpESmQFgbPCMA9b8OPhns/ELzw8VoMNdIl+ZNObIjX86/E3m+o/spekDEF2PUXl3Yim9vygD+f+bnk/sgzSTeU9QmRr9sEVcH+kc+m85HpdpHiNricra2qOEYpbuPNJ7ekjGJ31encOnCWSXcaPH2S/QSkMvmPLgjoPvTh/wBnOZ+yl6LYFW9QeZIPCLi6P9jN24yL8KMY9Yl2dxgecLr02aPH2S/QSkMvmPLgjoPvTh/2cbH2TPQ+1C0E/nvMsjiiLi/sZvDGOFGMesS7O4ecLr02aOT7JPoGMKI/L+XX2/zadOf/AOuZD9lL0WwKt6g8yQeEXF0f7GbtxjhRjHrEuzuHnC69Nmjx9kv0EpDL5jy4I6D704f9nOZ+yl6LYFW9QeZIPCLi6P8AYzduMcKMY9Yl2dw84XXps0Tt/ZK9Hfs7/wAnec8lHsAf4tpCrKG/CwBnz56n9L+V9G+e3PT3mCGn1pKVwKDp+DD+vPvnPkr7TAA+JIofXQh//d8mGhekGIX1+7W6qa8XFvbxNGzwq9rVa/i6ks00anxjGdUJGQS60MW0HRKKwuw6fqCtZjTankdY3e1chSKHQcxLszS70SO9hkKng+hK3l76sEaNIiUyAsDZ4RgB9WCNGkRKZAWBs8IyVNqeR1jd7VyFIodBwm1PI6xu9q5CkUOg5U+rBGjSIlMgLA2eEYAfVgjRpESmQFgbPCMlTankdY3e1chSKHQcJtTyOsbvauQpFDoOVPqwRo0iJTICwNnhGAH1YI0aREpkBYGzwjJU2p5HWN3tXIUih0HCbU8jrG72rkKRQ6DlT6sEaNIiUyAsDZ4RgB9WCNGkRKZAWBs8IyVNqeR1jd7VyFIodBwm1PI6xu9q5CkUOg5U+rBGjSIlMgLA2eEYAfVgjRpESmQFgbPCMlTankdY3e1chSKHQcJtTyOsbvauQpFDoOVPqwRo0iJTICwNnhGAH1YI0aREpkBYGzwjO79EzSTSbXzGugtc/rzzSbU8jrG72rkKRQ6DnrPSUMcMmx8tatVvuWLn9mTXwef7iof1f4s9JjGM1x6bGco3CSK5RWCkH2t9D+45xz6O+Gvwu+DPqT0B4CX1MDp+U8jHsbG75L+UmT5Cx7cMYURE+0D5byE2L4CPobqjHWMG/v6eHwU6qbTeWxZ8Tf4Fmr9pz0JF5Dy26dH1hrr5hNIiGCaD5Xjm1zrEx66E/wA2T5DBmteFfumu9T8UftJemfiB6K8/4PR9PeT8Zt+bfT9uqpj/AGLXEE07lhRsswmF/dFFT9b5s8/Bb4UD0/N6e8b6Q8ZH5Tf29ebYg2vMN8zUgSbZVSuxTFRMkURoDpkX6WpHq/S3w1+CnivGSehNr0l4LUHldYbO5sbMkextQSHSVmijlm9zxhZGYfdIII+tjL+rN7MyCO9wihJVadGblFprat0dXbvfIst+eW/a8/gHGbf+0H6N+Hnpifwm78PtRtODdTbj2Nc7x2qaHZkjV/c3QWQKa+n5ZqDMdrJ5HQLO6je0VWgmk89j37Hl7RjGM+GSeM9TRRnyM0xX76ICpv6UOZ0SbU8jrG72rkKRQ6Dncep5ZB5toQ33HChhX1v65C+rBGjSIlMgLA2eEZs6H7NHlDS378uv55fMPqwRo0iJTICwNnhGSptTyOsbvauQpFDoOE2p5HWN3tXIUih0HKn1YI0aREpkBYGzwjLpHg+rBGjSIlMgLA2eEZKm1PI6xu9q5CkUOg4TankdY3e1chSKHQcqfVgjRpESmQFgbPCMAPqwRo0iJTICwNnhGSptTyOsbvauQpFDoOE2p5HWN3tXIUih0HKn1YI0aREpkBYGzwjAD6sEaNIiUyAsDZ4RkqbU8jrG72rkKRQ6DhNqeR1jd7VyFIodByp9WCNGkRKZAWBs8IwA+rBGjSIlMgLA2eEZKm1PI6xu9q5CkUOg4TankdY3e1chSKHQcqfVgjRpESmQFgbPCMA+gvslQxQ+U8/8tauCK+/0jn0pnzL9kGaWbyfqH5jXUENc/pHPprODaa/fdb+n/FENxX97n8PkhjGMiprhmwX+EO2m9reL/l6D9r2dZNkKdSZYwrQ/OoSFfaT7TXD9c19nsB8TvPf3RReoXVHMOqmqms0jmJVWAQ+4C+EqL/rOZ1nK1jn5Ss9q5d23Pd8C9SdNftPZ+Zn9VfCfzvpLU397e29aWDRTWcPFZEomLABecKlSCDniM9t574sef9Q+E8n4Dd1dUavktqLaPtB90LIBxTf0NCwfy5nicX/knjF5Hnq5cfLm/wAMhW8Xrf6W4YxjMEsjPkr7TP8A9SR/+Ph//d8+tc+SvtM//Ukf/j4f/wB3ya6A/e6/ll+BtcG/el7manxjGduJcQS60MW0HRKKwuw6fqCtZjTankdY3e1chSKHQcxLszS70SO9hkKng+hK3l76sEaNIiUyAsDZ4RgB9WCNGkRKZAWBs8IyVNqeR1jd7VyFIodBwm1PI6xu9q5CkUOg5U+rBGjSIlMgLA2eEYAfVgjRpESmQFgbPCMlTankdY3e1chSKHQcJtTyOsbvauQpFDoOVPqwRo0iJTICwNnhGAH1YI0aREpkBYGzwjJU2p5HWN3tXIUih0HCbU8jrG72rkKRQ6DlT6sEaNIiUyAsDZ4RgB9WCNGkRKZAWBs8IyVNqeR1jd7VyFIodBwm1PI6xu9q5CkUOg5U+rBGjSIlMgLA2eEYAfVgjRpESmQFgbPCMlTankdY3e1chSKHQcJtTyOsbvauQpFDoOVPqwRo0iJTICwNnhGAH1YI0aREpkBYGzwjO79EzSTSbXzGugtc/rzzSbU8jrG72rkKRQ6DnrPSUMcMmx8tatVvuWLn9mTXwef7iof1f4s9JjGM1x6bGfodwKDED+vPzGAc/my3fzX/ANo5+fNlJv5jX+dnOOcZJY4VLyuFUfUk4Pjais2cyzN9WJr8zn5nTbPqrxcEnyo3aViQPujn65hk9VKgZv2QkKL/AJ2VqnN7UiN3WmGB2c/F1bmOfs2/LM7/ABnQavrHx07BJEkiJNdFjO6g2YNhfdDKrj9xylxcdjRssPxrD8VWdnWjP2J7ejeeR9TRRnyM0xX76ICpv6UOZ0SbU8jrG72rkKRQ6Dncep5ZB5toQ33HChhX1v65C+rBGjSIlMgLA2eEZsqH7NHmPS378uv55fMPqwRo0iJTICwNnhGSptTyOsbvauQpFDoOE2p5HWN3tXIUih0HKn1YI0aREpkBYGzwjLpHg+rBGjSIlMgLA2eEZKm1PI6xu9q5CkUOg4TankdY3e1chSKHQcqfVgjRpESmQFgbPCMAPqwRo0iJTICwNnhGSptTyOsbvauQpFDoOE2p5HWN3tXIUih0HKn1YI0aREpkBYGzwjAD6sEaNIiUyAsDZ4RkqbU8jrG72rkKRQ6DhNqeR1jd7VyFIodByp9WCNGkRKZAWBs8IwA+rBGjSIlMgLA2eEZKm1PI6xu9q5CkUOg4TankdY3e1chSKHQcqfVgjRpESmQFgbPCMA+gvslQxQ+U8/8ALWrgivv9I59KZ8R/BL4p/wB7z1M8/ko2l0N5RDP7APcneMPzrPqCP45fC54hK/qzVjse4q6vY/r5nGNM8IvZ4rOvTpSlGSWTSb3JLi9xE8VtqruZTUW08t3uPeYzwY+OvwnYhR600iTwcf8As5zPxu+FqgsfWGmAOnj/ANnIn5pv+Yn1X3Gu8nreg+hnucZ4MfHX4TsQo9aaRJ4OP/Zzmfjd8LVBY+sNMAdPH/s4803/ADE+q+4eT1vQfQz3OM8GPjr8J2IUetNIk8HH/s5zPxu+FqgsfWGmAOnj/wBnHmm/5ifVfcPJ63oPoZ7nGeDHx1+E7EKPWmkSeDj/ANnOZ+N3wtUFj6w0wB08f+zjzTf8xPqvuHk9b0H0M9znyV9pn/6kj/8AHw//ALvm8dz4/fCrV13mi9Va+y6/zYolYsx/IWM+XfiR6zk9eeq9r1A0RiicCOFD9VjF0D+/pybaC4VeUcQdxVpuMVFrNpra8t2ZtsHt6sa+vKLSS4zzGMYzrpJyCXWhi2g6JRWF2HT9QVrMabU8jrG72rkKRQ6DmJdmaXeiR3sMhU8H0JW8vfVgjRpESmQFgbPCMAPqwRo0iJTICwNnhGSptTyOsbvauQpFDoOE2p5HWN3tXIUih0HKn1YI0aREpkBYGzwjAD6sEaNIiUyAsDZ4RkqbU8jrG72rkKRQ6DhNqeR1jd7VyFIodByp9WCNGkRKZAWBs8IwA+rBGjSIlMgLA2eEZKm1PI6xu9q5CkUOg4TankdY3e1chSKHQcqfVgjRpESmQFgbPCMAPqwRo0iJTICwNnhGSptTyOsbvauQpFDoOE2p5HWN3tXIUih0HKn1YI0aREpkBYGzwjAD6sEaNIiUyAsDZ4RkqbU8jrG72rkKRQ6DhNqeR1jd7VyFIodByp9WCNGkRKZAWBs8IwA+rBGjSIlMgLA2eEZd6a85HpbDpuEkTUoYD6HOnTankdY3e1chSKHQcqfVgjRpESmQFgbPCMoqQVSOqzZYRitfBbyF9b5a0eXdtWT7DYcU0U6B4nDKfxBznmtdPyvkIJ0+VssoLAEADuehX1NuwRs0iJJ7QTZ4cwZW01u2ncMM8KOF3MEr2MqUvdrL4NbelHqcZ5AettmR1RNOMe4gWScxb3l9/YictOVABIC8z4reo+IzL3wmYHbQboylUfIk12vI9D5PzutoRv7CJZFBNA8H9eeM2vM73k9gDYl/xbNXsA4Acjbemq5XLIf5wodH45Y+rBGjSIlMgLA2eEZl06EYbXtZyPSPTbEdIW6bfi6Xop7/AOZ8fy9gk1YI0aREplBYGzwjJU2p5HWN3tXIUih0HCbU8jrG72rkKRQ6DlT6sEaNIiUyAsDZ4Rl8hofVgjRpESmQFgbPCMxafk96HYjaOcqSwBoDozEm1PI6xu9q5CkUOg5U+rBGjSIlMgLA2eEZ8aUlky7Rr1baoqtGTjJbmnk0UeSk/bJH3ZVHzQnCPzA5nWptTyOsbvauQpFDoOE2p5HWN3tXIUih0HKn1YI0aREpkBYGzwjEYqKyRVdXNW8rSuK7znJ5t8rD6sEaNIiUyAsDZ4RkqbU8jrG72rkKRQ6DhNqeR1jd7VyFIodByp9WCNGkRKZAWBs8Iz6WA+rBGjSIlMgLA2eEZKm1PI6xu9q5CkUOg4TankdY3e1chSKHQcqfVgjRpESmQFgbPCMAPqwRo0iJTICwNnhGSptTyOsbvauQpFDoOE2p5HWN3tXIUih0HKn1YI0aREpkBYGzwjAD6sEaNIiUyAsDZ4RkqbU8jrG72rkKRQ6DhNqeR1jd7VyFIodByp9WCNGkRKZAWBs8IwA+rBGjSIlMgLA2eEZKm1PI6xu9q5CkUOg4TankdY3e1chSKHQcqfVgjRpESmQFgbPCMAPqwRo0iJTICwNnhGSptTyOsbvauQpFDoOE2p5HWN3tXIUih0HKn1YI0aREpkBYGzwjAD6sEaNIiUyAsDZ4RkqbU8jrG72rkKRQ6DhNqeR1jd7VyFIodByp9WCNGkRKZAWBs8IwA+rBGjSIlMgLA2eEZKm1PI6xu9q5CkUOg4TankdY3e1chSKHQcqfVgjRpESmQFgbPCMAPqwRo0iJTICwNnhGSptTyOsbvauQpFDoOE2p5HWN3tXIUih0HKn1YI0aREpkBYGzwjAD6sEaNIiUyAsDZ4RkqbU8jrG72rkKRQ6DhNqeR1jd7VyFIodByp9WCNGkRKZAWBs8IwA+rBGjSIlMgLA2eEZ+6UryxFpGshq+n7hkibU8jrG72rkKRQ6DnYRxJEvtjWgTf1wDnjGMAgl1oYtoOiUVhdh0/UFazGm1PI6xu9q5CkUOg5iXZml3okd7DIVPB9CVvL31YI0aREpkBYGzwjAD6sEaNIiUyAsDZ4RkqbU8jrG72rkKRQ6DhNqeR1jd7VyFIodByp9WCNGkRKZAWBs8IwA+rBGjSIlMgLA2eEZKm1PI6xu9q5CkUOg4TankdY3e1chSKHQcqfVgjRpESmQFgbPCMAPqwRo0iJTICwNnhGSptTyOsbvauQpFDoOE2p5HWN3tXIUih0HKn1YI0aREpkBYGzwjAD6sEaNIiUyAsDZ4RkqbU8jrG72rkKRQ6DhNqeR1jd7VyFIodByp9WCNGkRKZAWBs8IwA+rBGjSIlMgLA2eEZKm1PI6xu9q5CkUOg4TankdY3e1chSKHQcqfVgjRpESmQFgbPCMAPqwRo0iJTICwNnhGSptTyOsbvauQpFDoOE2p5HWN3tXIUih0HKn1YI0aREpkBYGzwjAD6sEaNIiUyAsDZ4RkqbU8jrG72rkKRQ6DhNqeR1jd7VyFIodByp9WCNGkRKZAWBs8IwA+rBGjSIlMgLA2eEZKm1PI6xu9q5CkUOg4TankdY3e1chSKHQcqfVgjRpESmQFgbPCMAxburBHqTOkdMqEg2frmJNqeR1jd7VyFIodByPyXlJ4NY/M9zxv91qA4M7DXWKXUG4NcxMVLqCxJH4jAMz6sEaNIiUyAsDZ4RkqbU8jrG72rkKRQ6DhNqeR1jd7VyFIodByp9WCNGkRKZAWBs8IwA+rBGjSIlMgLA2eEZKm1PI6xu9q5CkUOg4TankdY3e1chSKHQcqfVgjRpESmQFgbPCMAPqwRo0iJTICwNnhGSptTyOsbvauQpFDoOE2p5HWN3tXIUih0HKn1YI0aREpkBYGzwjAD6sEaNIiUyAsDZ4RkqbU8jrG72rkKRQ6DhNqeR1jd7VyFIodByp9WCNGkRKZAWBs8IwA+rBGjSIlMgLA2eEZKm1PI6xu9q5CkUOg4TankdY3e1chSKHQcqfVgjRpESmQFgbPCMAPqwRo0iJTICwNnhGSptTyOsbvauQpFDoOE2p5HWN3tXIUih0HKn1YI0aREpkBYGzwjAD6sEaNIiUyAsDZ4RkqbU8jrG72rkKRQ6DhNqeR1jd7VyFIodByp9WCNGkRKZAWBs8IwA+rBGjSIlMgLA2eEZKm1PI6xu9q5CkUOg4TankdY3e1chSKHQcqfVgjRpESmQFgbPCMAPqwRo0iJTICwNnhGSptTyOsbvauQpFDoOE2p5HWN3tXIUih0HKn1YI0aREpkBYGzwjAD6sEaNIiUyAsDZ4RkqbU8jrG72rkKRQ6DhNqeR1jd7VyFIodByp9WCNGkRKZAWBs8IwA+rBGjSIlMgLA2eEZKm1PI6xu9q5CkUOg4TankdY3e1chSKHQcqfVgjRpESmQFgbPCMAPqwRo0iJTICwNnhGSptTyOsbvauQpFDoOE2p5HWN3tXIUih0HKn1YI0aREpkBYGzwjAD6sEaNIiUyAsDZ4RkqbU8jrG72rkKRQ6DhNqeR1jd7VyFIodByp9WCNGkRKZAWBs8IwA+rBGjSIlMgLA2eEZ+6UryxFpGshq+n7hkibU8jrG72rkKRQ6DnYRxJEvtjWgTf1wDnjGMAgl1oYtoOiUVhdh0/UFazGm1PI6xu9q5CkUOg5iXZml3okd7DIVPB9CVvL31YI0aREpkBYGzwjAD6sEaNIiUyAsDZ4RkqbU8jrG72rkKRQ6DhNqeR1jd7VyFIodByp9WCNGkRKZAWBs8IwA+rBGjSIlMgLA2eEZKm1PI6xu9q5CkUOg4TankdY3e1chSKHQcqfVgjRpESmQFgbPCMAPqwRo0iJTICwNnhGSptTyOsbvauQpFDoOE2p5HWN3tXIUih0HKn1YI0aREpkBYGzwjAD6sEaNIiUyAsDZ4RkqbU8jrG72rkKRQ6DhNqeR1jd7VyFIodByp9WCNGkRKZAWBs8IwA+rBGjSIlMgLA2eEZKm1PI6xu9q5CkUOg4TankdY3e1chSKHQcqfVgjRpESmQFgbPCMAPqwRo0iJTICwNnhGSptTyOsbvauQpFDoOE2p5HWN3tXIUih0HKn1YI0aREpkBYGzwjAD6sEaNIiUyAsDZ4RkqbU8jrG72rkKRQ6DhNqeR1jd7VyFIodByp9WCNGkRKZAWBs8IwA+rBGjSIlMgLA2eEZKm1PI6xu9q5CkUOg4TankdY3e1chSKHQc9P6f9LRb8q7MsRWFDd2fvHN5o9o9faTX0MPw+GcnvfFFcbb4kvyW0v29vUuqipUlm2Y/Dej4PLgvswldf95P3jkPm/E7/AIfcXXlYvrSN7UYKACv5Zs6KKOGNYolCqooAZh3tHX8hrtr7CBlP0P4g/mM9OXvgUwqeAqwtnldR2+Nf/KXGmvR5Fxb9rzzllTR+l5NqQf11x8vs9xqx9WCNGkRKZAWBs8IyVNqeR1jd7VyFIodBztvOeJ8h4jcEEzF9eVqV/aOgn6ZG+rBGjSIlMgLA2eEZ5YxXCrvBLudjfQcKkHk0/muVPifGRCrSnQm6dRZNB9WCNGkRKZAWBs8IyVNqeR1jd7VyFIodBwm1PI6xu9q5CkUOg5U+rBGjSIlMgLA2eEZri2H1YI0aREpkBYGzwjJU2p5HWN3tXIUih0HCbU8jrG72rkKRQ6DlT6sEaNIiUyAsDZ4RgB9WCNGkRKZAWBs8IyVNqeR1jd7VyFIodBwm1PI6xu9q5CkUOg5U+rBGjSIlMgLA2eEYAfVgjRpESmQFgbPCMlTankdY3e1chSKHQcJtTyOsbvauQpFDoOVPqwRo0iJTICwNnhGAH1YI0aREpkBYGzwjJU2p5HWN3tXIUih0HCbU8jrG72rkKRQ6DlT6sEaNIiUyAsDZ4RgB9WCNGkRKZAWBs8IyVNqeR1jd7VyFIodBwm1PI6xu9q5CkUOg5U+rBGjSIlMgLA2eEYAfVgjRpESmQFgbPCMlTankdY3e1chSKHQcJtTyOsbvauQpFDoOVPqwRo0iJTICwNnhGAH1YI0aREpkBYGzwjJU2p5HWN3tXIUih0HCbU8jrG72rkKRQ6DlT6sEaNIiUyAsDZ4RgB9WCNGkRKZAWBs8IyVNqeR1jd7VyFIodBwm1PI6xu9q5CkUOg5U+rBGjSIlMgLA2eEYAfVgjRpESmQFgbPCMlTankdY3e1chSKHQcJtTyOsbvauQpFDoOVPqwRo0iJTICwNnhGAH1YI0aREpkBYGzwjJU2p5HWN3tXIUih0HCbU8jrG72rkKRQ6DlT6sEaNIiUyAsDZ4RgB9WCNGkRKZAWBs8IyVNqeR1jd7VyFIodBwm1PI6xu9q5CkUOg5U+rBGjSIlMgLA2eEYAfVgjRpESmQFgbPCM/dKV5Yi0jWQ1fT9wyRNqeR1jd7VyFIodBzsI4kiX2xrQJv64BzxjGAQS60MW0HRKKwuw6fqCtZjTankdY3e1chSKHQcxLszS70SO9hkKng+hK3l76sEaNIiUyAsDZ4RgB9WCNGkRKZAWBs8IyVNqeR1jd7VyFIodBwm1PI6xu9q5CkUOg5U+rBGjSIlMgLA2eEYAfVgjRpESmQFgbPCMlTankdY3e1chSKHQcJtTyOsbvauQpFDoOVPqwRo0iJTICwNnhGAH1YI0aREpkBYGzwjJU2p5HWN3tXIUih0HCbU8jrG72rkKRQ6DlT6sEaNIiUyAsDZ4RgB9WCNGkRKZAWBs8IyVNqeR1jd7VyFIodBwm1PI6xu9q5CkUOg5U+rBGjSIlMgLA2eEYAfVgjRpESmQFgbPCMlTankdY3e1chSKHQcJtTyOsbvauQpFDoOUzQ6uvG0tBCoJUlj9fwwD9fVgjRpESmQFgbPCMlTankdY3e1chSKHQc4J5FpHWOSW1YgEe36g5Q/7FGjSRimUEqe/XAMr6sEaNIiUyAsDZ4Rkse1PK6xu9q5CkUOg5jTyLSOscktqxAYe38M918NfQEfrn1P4rw0UqQL5Deg00lYkhWkcKCR9aBObjA8Du9Ib2NjZrOT2t8UYrfJ+xfktpeoUJ3E1TgtpB6e9Kx78q7UsRWFDd2fvHPeRRRwxrFEoVVFADN+r9kmbXlhSH4ieLHjZW/ZYtoaM/3tr9qk1hF7ALALxOff8ASq/POw8n9lDWkl1IPDesJYJf7n9fyewNrQleNtg67yyqkqqEC/cpVJLdF87nrjQ2GjGhlkrS2q603tnPVlm2uXZsS4lxce15ua4fG0sKerF5t73kz50xn1P60+yR6Q1zE3pf1rs6GvrQa43J/JKdgyzzHXVRGkca+we7ZX6luX3ndL+G+EPk/Kef814TY83o6v8AIW3JpzlQ0800isy1DrxgyPftPaCjlkWMmthpRhmI0XXpTaS2vNNNZ7uLbvWxZvaszY07ylVjrRZrje0dfyGu2vsoGU/Q/iD+YzXHnPFeQ8RuCCZi+vK1K/tFEH8P68+n/hX8P/SHrnxPqTS8m3lIvM+N09nd054tqFIiIoywT9nZTLMx9rX7CPYOmxedh434F+j/AFH8FNj1T5Pa8l/LsvivI+b1mjeM6kcOnsRQmJ19pYyMZfcGDACq9p+uQPwjaP4RpVQdKrnC6g4xhPLjkm0pZb4PJ58ccs0tu3WYtaUbyPJNbE/fy+w+RH1YI0aREpkBYGzwjJU2p5HWN3tXIUih0HOy8/o7Xhd8auxMHhlP3SAOr/0yJ/2KNGkjFMoJU9+ueRcUwy6wa7qWN7DVqQeTX64nvT5CE1ac6M3TmsmjK+rBGjSIlMgLA2eEZKm1PI6xu9q5CkUOg5jTyLSOscktqxAYe38Mpf8AYo0aSMUyglT365gFBlfVgjRpESmQFgbPCMlTankdY3e1chSKHQcxp5FpHWOSW1YgMPb+GUv+xRo0kYplBKnv1wDK+rBGjSIlMgLA2eEZKm1PI6xu9q5CkUOg5jTyLSOscktqxAYe38Mpf9ijRpIxTKCVPfrgGV9WCNGkRKZAWBs8IyVNqeR1jd7VyFIodBzhH5BpZFikmHtchSCALBy19WCNGkRKZQWBs8IwA+rBGjSIlMgLA2eEZKm1PI6xu9q5CkUOg4TankdY3e1chSKHQcqfVgjRpESmQFgbPCMAPqwRo0iJTICwNnhGSptTyOsbvauQpFDoOE2p5HWN3tXIUih0HKn1YI0aREpkBYGzwjAD6sEaNIiUyAsDZ4RkqbU8jrG72rkKRQ6DhNqeR1jd7VyFIodByp9WCNGkRKZAWBs8IwA+rBGjSIlMgLA2eEZKm1PI6xu9q5CkUOg4TankdY3e1chSKHQcqfVgjRpESmQFgbPCMAPqwRo0iJTICwNnhGSptTyOsbvauQpFDoOE2p5HWN3tXIUih0HKn1YI0aREpkBYGzwjAD6sEaNIiUyAsDZ4RkqbU8jrG72rkKRQ6DhNqeR1jd7VyFIodByp9WCNGkRKZAWBs8IwA+rBGjSIlMgLA2eEZKm1PI6xu9q5CkUOg4TankdY3e1chSKHQcqfVgjRpESmQFgbPCMAPqwRo0iJTICwNnhGfulK8sRaRrIavp+4ZIm1PI6xu9q5CkUOg52EcSRL7Y1oE39cA54xjAIJdaGLaDolFYXYdP1BWsxptTyOsbvauQpFDoOYl2Zpd6JHewyFTwfQlby99WCNGkRKZAWBs8IwA+rBGjSIlMgLA2eEZKm1PI6xu9q5CkUOg4TankdY3e1chSKHQcqfVgjRpESmQFgbPCMAPqwRo0iJTICwNnhGSptTyOsbvauQpFDoOE2p5HWN3tXIUih0HKn1YI0aREpkBYGzwjAD6sEaNIiUyAsDZ4RkqbU8jrG72rkKRQ6DhNqeR1jd7VyFIodByp9WCNGkRKZAWBs8IwA+rBGjSIlMgLA2eEZKm1PI6xu9q5CkUOg4TankdY3e1chSKHQcqfVgjRpESmQFgbPCMAPqwRo0iJTICwNnhGdfFNLs7Z+c3uAYR0QPofr/AO+Zk2p5HWN3tXIUih0HMkevDGdqREpo3tTZ4QoOAZn1YIkaREpkBYGzwjJU2p5HWN3tXIUih0HCbU8jrG72rkKRQ6DlT6sEaNIiUyAsDZ4RgB9WCNGkRKZAWBs8Iy70l6x816W87peY8btFJ9WeOaMgD7rqwKt/WCAc6dNqeR1jd7VyFIodByp9WCNGkRKZAWBs8IzOw7EbnCbmF5Zz1Zx3P8Hyp7mnsaK6dSVKSnB5NH0b6e+P/wASYUG74n1bOhMcsZUojBfmStMx9pFBvmMzBvqLNEXnY63x/wDizqeKj8LF6rkOtDrDUj+ZrxO6xBClB2Ut1CVJuyOHPmfwnqHe8buo6ye6N2CuhFAjNm6G/r+R112IGsH6j8Qc9gaA6UYHpva6tWhTjcx+3HVW3+KOzatvvTeT4m5vhl7b4hHVnFKa3rLf7UbB2/jb8Tt6N4tr1TPIkhiZgUTpjMZQ/T8DDH/sjPJb3lvI+R8psea29t23dqZ9iWYH2s0jG2bn0JJyPGdOoWVta/sKcY+5JfL3G5jThD7KyPT+nviR6x9L+L2PC+G8sYNTaLmRflIzj3qFk9jkFk9yj2t7SLHDeYfWHx79Wa/gt703Dvw+P8Z5VyT4vShWKFAxUsqV1EJVSyg0SASCc8V5zzut4eEe5g00h9qIPrf5/wBWeA8jK+7LJu7DFpaLAknlfTmch8JmnGG6LRdtZ04TvZbdyepyTl/F6K38e7focXxGlaf6dJJ1H2e338g8jK+7LJu7DFpQCwJJ5X05nWptTyOsbvauQpFDoOE2p5HWN3tXIUih0HKn1YI0aREpkBYGzwjPJF1dVr2tK4uJOU5PNt7W2yGSk5tyk82w+rBGjSIlMgLA2eEZKm1PI6xu9q5CkUOg4TankdY3e1chSKHQc7fxngH8ttrpePRRsOCU9zECwLyyk5PJF22tqt5Wjb0IuU5PJJb23uSIn1YI0aREpkBYGzwjJU2p5HWN3tXIUih0HPZD4Z+sWIWQ6pQ8YfMHR+P4ZzPws88oLRwa4cdU/O+h/DL/AJJX9B9BJuAekvqVTqnlH1YI0aREpkBYGzwjJU2p5HWN3tXIUih0HPZD4Z+sWIWQ6pQ8YfMHR+P4ZzPws88oLRwa4cdU/O+h/DHklf0H0DgHpL6lU6p5LY1NRIHcxqPapILHl/68i0tuWVY4Wl9yk+1gaurrPaS/C71dsRtBOdVo3HtYfMH0/TMPjPg76g8drFAmu01lvf8AN/H8MeSV/QfQOAekvqVTqnQPqwRo0iJTICwNnhGSptTyOsbvauQpFDoOeyHwz9YsQsh1Sh4w+YOj8fwzmfhZ55QWjg1w46p+d9D+GPJK/oPoHAPSX1Kp1Tyj6sEaNIiUyAsDZ4RkqbU8jrG72rkKRQ6Dnsh8M/WLELIdUoeMPmDo/H8M5n4WeeUFo4NcOOqfnfQ/hjySv6D6BwD0l9SqdU8o+rBGjSIlMgLA2eEZKm1PI6xu9q5CkUOg53nnvTHnvTqwN5Z4fl7L/LARgSfz/DOtfVgjRpESmQFgbPCMszhKm9WSyZH8Qw67wqu7W9puFRZZp7Ht2oPqwRo0iJTICwNnhGSptTyOsbvauQpFDoOE2p5HWN3tXIUih0HKn1YI0aREpkBYGzwjKTCD6sEaNIiUyAsDZ4RkqbU8jrG72rkKRQ6DhNqeR1jd7VyFIodByp9WCNGkRKZAWBs8IwA+rBGjSIlMgLA2eEZKm1PI6xu9q5CkUOg4TankdY3e1chSKHQcqfVgjRpESmQFgbPCMAPqwRo0iJTICwNnhGSptTyOsbvauQpFDoOE2p5HWN3tXIUih0HKn1YI0aREpkBYGzwjAD6sEaNIiUyAsDZ4Rn7pSvLEWkayGr6fuGSJtTyOsbvauQpFDoOdhHEkS+2NaBN/XAOeMYwCCXWhi2g6JRWF2HT9QVrMabU8jrG72rkKRQ6DmJdmaXeiR3sMhU8H0JW8vfVgjRpESmQFgbPCMAPqwRo0iJTICwNnhGSptTyOsbvauQpFDoOE2p5HWN3tXIUih0HKn1YI0aREpkBYGzwjAD6sEaNIiUyAsDZ4RkqbU8jrG72rkKRQ6DhNqeR1jd7VyFIodByp9WCNGkRKZAWBs8IwA+rBGjSIlMgLA2eEZKm1PI6xu9q5CkUOg4TankdY3e1chSKHQcqfVgjRpESmQFgbPCMAPqwRo0iJTICwNnhGSptTyOsbvauQpFDoOE2p5HWN3tXIUih0HKn1YI0aREpkBYGzwjAD6sEaNIiUyAsDZ4RkGrsTSTyRu9rJKAwodBAGZU2p5HWN3tXIUih0HMkevDGdqREpo3tTZ4QoOAZn1YI0aREpkBYGzwjJU2p5HWN3tXIUih0HCbU8jrG72rkKRQ6DlT6sEaNIiUyAsDZ4RgB9WCNGkRKZAWBs8IyVNqeR1jd7VyFIodBwm1PI6xu9q5CkUOg5U+rBGjSIlMgLA2eEYAfVgjRpESmQFgbPCMy+E9Q73jd1HV/fGxCuh4CMgTankdY3e1chSKHQcqfVgjRpESmQFgbPCMz8MxO7we7he2U3CpB5pr9bU+NbmiulVnRmpweTRtPQ39fyOus8D2D9R+IP5ZH5zzut4eEe4hppDSJ/1/qzXnhvUHkPG7avHJ7lc+1lI4cyeRlfdlk3dhi0oBYEk8r6cz0Pe+HSE8BTtqeV7L6rWX1Y/wAa5c+KPE9+xbZNU0ibtsor/U7PePIyvuyybuwxaUAsCSeV9OZ1qbU8jrG72rkKRQ6DhNqeR1jd7VyFIodByp9WCNGkRKZAWBs8IzzhdXVa9rSuLiTlOTzbe1tsjEpObcpPNsPqwRo0iJTICwNnhGSptTyOsbvauQpFDoOE2p5HWN3tXIUih0HKn1YI0aREpkBYGzwjLBSH1YI0aREpkBYGzwjO8+G+zNL6s1Vd7FP+A/0TnmU2p5HWN3tXIUih0HPX/D7Whi9UarIlGm/E/wCicv237aHvXzJNoZ/uGy/+sP8AJG5MYxkxPcQxjGAMYxgDGMAEmgLJwBjKfI+M8j4jbbQ8ro7GnsoFZoZ4yjgMoZSVPeqQR+YIybB8jJSSlF5pmv8A4uKp0NJyOo7sp/Ihc1Ym1PI6xu9q5CkUOg5tH4usw1fGoDx5mVh+YIzXD6sEaNIiUyAsDZ4RkVxL95l8PkeQvC3/ALqr/wAsP8UH1YI0aREpkBYGzwjJU2p5HWN3tXIUih0HCbU8jrG72rkKRQ6DlT6sEaNIiUyAsDZ4RmCc1D6sEaNIiUyAsDZ4RkqbU8jrG72rkKRQ6DhNqeR1jd7VyFIodByp9WCNGkRKZAWBs8IwA+rBGjSIlMgLA2eEZKm1PI6xu9q5CkUOg4TankdY3e1chSKHQcqfVgjRpESmQFgbPCMAPqwRo0iJTICwNnhGSptTyOsbvauQpFDoOE2p5HWN3tXIUih0HKn1YI0aREpkBYGzwjAD6sEaNIiUyAsDZ4Rn7pSvLEWkayGr6fuGSJtTyOsbvauQpFDoOdhHEkS+2NaBN/XAOeMYwCCXWhi2g6JRWF2HT9QVrMabU8jrG72rkKRQ6DmJdmaXeiR3sMhU8H0JW8vfVgjRpESmQFgbPCMAPqwRo0iJTICwNnhGSptTyOsbvauQpFDoOE2p5HWN3tXIUih0HKn1YI0aREpkBYGzwjAD6sEaNIiUyAsDZ4RkqbU8jrG72rkKRQ6DhNqeR1jd7VyFIodByp9WCNGkRKZAWBs8IwA+rBGjSIlMgLA2eEZKm1PI6xu9q5CkUOg4TankdY3e1chSKHQcqfVgjRpESmQFgbPCMAPqwRo0iJTICwNnhGSptTyOsbvauQpFDoOE2p5HWN3tXIUih0HKn1YI0aREpkBYGzwjAD6sEaNIiUyAsDZ4RkGrsTSTyRu9rJKAwodBAGZU2p5HWN3tXIUih0HMkevDGdqREpo3tTZ4QoOAZn1YI0aREpkBYGzwjJU2p5HWN3tXIUih0HCbU8jrG72rkKRQ6DlT6sEaNIiUyAsDZ4RgB9WCNGkRKZAWBs8IyVNqeR1jd7VyFIodBwm1PI6xu9q5CkUOg5U+rBGjSIlMgLA2eEYAfVgjRpESmQFgbPCMlTankdY3e1chSKHQcJtTyOsbvauQpFDoOVPqwRo0iJTICwNnhGAH1YI0aREpkBYGzwjJU2p5HWN3tXIUih0HCbU8jrG72rkKRQ6DlT6sEaNIiUyAsDZ4RgB9WCNGkRKZAWBs8IyVNqeR1jd7VyFIodBwm1PI6xu9q5CkUOg5U+rBGjSIlMgLA2eEYAfVgjRpESmQFgbPCMlTankdY3e1chSKHQcJtTyOsbvauQpFDoOVPqwRo0iJTICwNnhGAH1YI0aREpkBYGzwjO8+G+zNL6s1Vd7FP+A/0TnmU2p5HWN3tXIUih0HPX/D7Whi9UarIlGm/E/6Jy/bftoe9fMk2hn+4bL/AOsP8kbkztvSO94vxnqjxPkPN637Roa25DLsxe2/dGHBYV+PL5nU4yYNZrI9v1KaqwcHuay6T6f8P8WvhdoS+VPnPO6nlfm7TTsV8IiDa0ykwTTU+wEFS6EsQv1oE+wX5H42fFL0L60k09jwOtFej52eeJYtCOIjQMcXy06ntb7yvxgfr0Zo7GWI20Iy1iN22ilnbXSu1KTkvast2W5Jfr2GxdP1v6On9f8AprzfkfDzt4jx20r70EmtqKZE9wJ+7rxRBvp9GvNs+B+LPwx8ak6eoPP6nmZBLPJssvg0iG7C8LJDAjBAf8XIQ5dgp7y/aM+YcZ9nbxnsZfvdG7S+SjKUkkstjXK3xptPbxZcXGlluP4xfEz0b6w2fD7/AIrxuntt4/f3GaBtX9nR9VpAYY2MftYigfxsfnnjPXPr3S9TepIPUXp30poemn11jCppvI9uigBj72Ivl8A/fZ6fH4yuFKMEkuIy7LBraxhCFPN6iklm3uk82mtz+KPZ/GD1Vo+tfX+/6l8fsyTxbcGoDI6kM0ia0aOTf9JWzxmMZXGKilFcRnWtvC0oQt6f2YJJe5LJGv8A4uKp0NJyOo7sp/Ihc1Ym1PI6xu9q5CkUOg5tH4usw1fGoDx5mVh+YIzXD6sEaNIiUyAsDZ4RkWxL95l8PkeSPC3/ALqr/wAsP8UH1YI0aREpkBYGzwjJU2p5HWN3tXIUih0HCbU8jrG72rkKRQ6DlT6sEaNIiUyAsDZ4RmCc1D6sEaNIiUyAsDZ4RkqbU8jrG72rkKRQ6DhNqeR1jd7VyFIodByp9WCNGkRKZAWBs8IwA+rBGjSIlMgLA2eEZKm1PI6xu9q5CkUOg4TankdY3e1chSKHQcqfVgjRpESmQFgbPCMAPqwRo0iJTICwNnhGSptTyOsbvauQpFDoOE2p5HWN3tXIUih0HKn1YI0aREpkBYGzwjAD6sEaNIiUyAsDZ4Rn7pSvLEWkayGr6fuGSJtTyOsbvauQpFDoOdhHEkS+2NaBN/XAOeMYwCCXWhi2g6JRWF2HT9QVrMabU8jrG72rkKRQ6DmJdmaXeiR3sMhU8H0JW8vfVgjRpESmQFgbPCMAPqwRo0iJTICwNnhGSptTyOsbvauQpFDoOE2p5HWN3tXIUih0HKn1YI0aREpkBYGzwjAD6sEaNIiUyAsDZ4RkqbU8jrG72rkKRQ6DhNqeR1jd7VyFIodByp9WCNGkRKZAWBs8IwA+rBGjSIlMgLA2eEZKm1PI6xu9q5CkUOg4TankdY3e1chSKHQcqfVgjRpESmQFgbPCMAPqwRo0iJTICwNnhGSptTyOsbvauQpFDoOE2p5HWN3tXIUih0HKn1YI0aREpkBYGzwjAD6sEaNIiUyAsDZ4RkGrsTSTyRu9rJKAwodBAGZU2p5HWN3tXIUih0HMketFGdqRUpke1NnlKMAzPqwRo0iJTICwNnhGSptTyOsbvauQpFDoOE2p5HWN3tXIUih0HKn1YI0aREpkBYGzwjAD6sEaNIiUyAsDZ4RkqbU8jrG72rkKRQ6DhNqeR1jd7VyFIodByp9WCNGkRKZAWBs8IwA+rBGjSIlMgLA2eEZKm1PI6xu9q5CkUOg4TankdY3e1chSKHQcqfVgjRpESmQFgbPCMAPqwRo0iJTICwNnhGSptTyOsbvauQpFDoOE2p5HWN3tXIUih0HKn1YI0aREpkBYGzwjAD6sEaNIiUyAsDZ4RkqbU8jrG72rkKRQ6DhNqeR1jd7VyFIodByp9WCNGkRKZAWBs8IwA+rBGjSIlMgLA2eEZKm1PI6xu9q5CkUOg4TankdY3e1chSKHQcqfVgjRpESmQFgbPCMAPqwRo0iJTICwNnhGd58N9maT1ZqrI9in/Af6JzzKbU8jrG72rkKRQ6DlyL+xe7Z03eGVFJV0cgjn9eXKU/FzU+R5m1wPEY4TiVC/nHWVOcZZcuTzyPoSx+YxY/MZ88x+ovOvIqN5fapmAP8AjSOZZJ5PyiRs6+U3bVSR/lDnv65uvPK9DtO+fTpZepy6y7jfVj8xix+Yz55j9RedeRUby+1TMAf8aRzLJPJ+USNnXym7aqSP8oc9/XHnleh2j6dLL1OXWXcb6sfmMWPzGfPMfqLzruqN5fapiAf8aRzM8PlfLDU+b/Ku77wGIJ2HPRf78eeV6HaPp0svU5dZdxv+x+YxY/MZ88x+ovOvIqN5fapmAP8AjSOZZJ5PyiRs6+U3bVSR/lDnv6488r0O0fTpZepy6y7jfVj8xix+Yz55j9RedeRUby+1TMAf8aRzLJPJ+USNnXym7aqSP8oc9/XHnleh2j6dLL1OXWXce7+Laq2hpP8AUo7sp/Ihc1Ym1PI6xu9q5CkUOg5nk8v5PfZIdzemmQsBTtf14c5vqwRo0iJTICwNnhGam6reUVXUyyzOL6ZaQU9KMXqYlTg4KSism83sSX4B9WCNGkRKZAWBs8IyVNqeR1jd7VyFIodBwm1PI6xu9q5CkUOg5U+rBGjSIlMgLA2eEZjkWD6sEaNIiUyAsDZ4RkqbU8jrG72rkKRQ6DhNqeR1jd7VyFIodByp9WCNGkRKZAWBs8IwA+rBGjSIlMgLA2eEZKm1PI6xu9q5CkUOg4TankdY3e1chSKHQcqfVgjRpESmQFgbPCMAPqwRo0iJTICwNnhGSptTyOsbvauQpFDoOE2p5HWN3tXIUih0HKn1YI0aREpkBYGzwjAD6sEaNIiUyAsDZ4Rn7pSvLEWkayGr6fuGSJtTyOsbvauQpFDoOdhHEkS+2NaBN/XAOeMYwCCXWhi2g6JRWF2HT9QVrMabU8jrG72rkKRQ6DmJdmaXeiR3sMhU8H0JW8vfVgjRpESmQFgbPCMAPqwRo0iJTICwNnhGSptTyOsbvauQpFDoOE2p5HWN3tXIUih0HKn1YI0aREpkBYGzwjAD6sEaNIiUyAsDZ4RkqbU8jrG72rkKRQ6DhNqeR1jd7VyFIodByp9WCNGkRKZAWBs8IwA+rBGjSIlMgLA2eEZKm1PI6xu9q5CkUOg4TankdY3e1chSKHQcqfVgjRpESmQFgbPCMAPqwRo0iJTICwNnhGSptTyOsbvauQpFDoOE2p5HWN3tXIUih0HKn1YI0aREpkBYGzwjAD6sEaNIiUyAsDZ4RnXrtTpsH5jFopiA1L/qP0/dmZNqeR1jd7VyFIodByp9WCNGkRKZAWBs8IwDE50Y0MiAhlHuU9+v4ZMnkmkdY5JSVYgMPb+H6ZkTankdY3e1chSKHQcqfVgjRpESmQFgbPCMAxOdGNGkjBDKCVPfrkyeSaR1jklJViAw9v4fpmRNqeR1jd7VyFIodByp9WCNGkRKZAWBs8IwDE50Y0aSMEMoJU9+uTJ5JpHWOSUlWIDD2/h+mZE2p5HWN3tXIUih0HKn1YI0aREpkBYGzwjAMft0grNDQdQWXpux+45MvkGeQRSTBlY0wAH0/H6Zh29hpY/ZLILP04Af9WdgurpxwGTWVf8AFglSDdEYBxc6MaNJGCGUEqe/XJk8k0jrHJKSrEBh7fw/TMibU8jrG72rkKRQ6DlT6sEaNIiUyAsDZ4RgGJzoxo0kYIZQSp79cmTyTSOsckpKsQGHt/D9MyJtTyOsbvauQpFDoOVPqwRo0iJTICwNnhGAYnOjGjSRghlBKnv1yZPJNI6xySkqxAYe38P0zIm1PI6xu9q5CkUOg5U+rBGjSIlMgLA2eEYBic6MaNJGCGUEqe/XJk8k0jrHJKSrEBh7fw/TMibU8jrG72rkKRQ6DlT6sEaNIiUyAsDZ4RgGJzoxo0kYIZQSp79cmTyTSOsckpKsQGHt/D9MyJtTyOsbvauQpFDoOVPqwRo0iJTICwNnhGAYJW1I0ZoImaQC1oH6/wDtmHVmn9sevJJ7gSFbg7Z7nNNqeR1jd7VyFIodByp9WCNGkRKZAWBs8IwA+rBGjSIlMgLA2eEZKm1PI6xu9q5CkUOg4TankdY3e1chSKHQcqfVgjRpESmQFgbPCMAPqwRo0iJTICwNnhGSptTyOsbvauQpFDoOE2p5HWN3tXIUih0HKn1YI0aREpkBYGzwjAD6sEaNIiUyAsDZ4RkqbU8jrG72rkKRQ6DhNqeR1jd7VyFIodByp9WCNGkRKZAWBs8IwA+rBGjSIlMgLA2eEZKm1PI6xu9q5CkUOg4TankdY3e1chSKHQcqfVgjRpESmQFgbPCMAPqwRo0iJTICwNnhGSptTyOsbvauQpFDoOE2p5HWN3tXIUih0HKn1YI0aREpkBYGzwjAD6sEaNIiUyAsDZ4RkqbU8jrG72rkKRQ6DhNqeR1jd7VyFIodByp9WCNGkRKZAWBs8IwA+rBGjSIlMgLA2eEZKm1PI6xu9q5CkUOg4TankdY3e1chSKHQcqfVgjRpESmQFgbPCMAPqwRo0iJTICwNnhGfulK8sRaRrIavp+4ZIm1PI6xu9q5CkUOg52EcSRL7Y1oE39cA54xjAIJdaGLaDolFYXYdP1BWsxptTyOsbvauQpFDoOYl2Zpd6JHewyFTwfQlby99WCNGkRKZAWBs8IwA+rBGjSIlMgLA2eEZKm1PI6xu9q5CkUOg4TankdY3e1chSKHQcqfVgjRpESmQFgbPCMAPqwRo0iJTICwNnhGSptTyOsbvauQpFDoOE2p5HWN3tXIUih0HKn1YI0aREpkBYGzwjAD6sEaNIiUyAsDZ4RkqbU8jrG72rkKRQ6DhNqeR1jd7VyFIodByp9WCNGkRKZAWBs8IwA+rBGjSIlMgLA2eEZKm1PI6xu9q5CkUOg4TankdY3e1chSKHQcqfVgjRpESmQFgbPCMAPqwRo0iJTICwNnhGSptTyOsbvauQpFDoOE2p5HWN3tXIUih0HKn1YI0aREpkBYGzwjAD6sEaNIiUyAsDZ4RkqbU8jrG72rkKRQ6DhNqeR1jd7VyFIodByp9WCNGkRKZAWBs8IwA+rBGjSIlMgLA2eEZsT0j8A/iR608Fq+ofGrpDS3ASolmCMVuvpWa98Jr73nPL6fiICXfcmSEKFHbNZ/Q70z4aD094DQ8JrIFj04EiAH7hnP9O9KrjRynShZ5eMm3vWf1V+bOjeD/AESttJJ1qt6n4uCSWTyzk+5LtR8nH7KfxHUFo4PHBx1T+1/Q/hnAfZa+LLELIfGFDxh+0r0fj+GfY+M5t9J+O/wdX8zpv0XYByT635Hxf5X7IvxG39QxRReOSQEFWO19DmTU+yl8VdaCPVH8mfKUBSP2kdH4/hn2ZjH0n47/AAdX8x9F2Ack+t+R8dn7KfxHUFo4PHBx1T+1/Q/hnAfZa+LLELIfGFDxh+0r0fj+GfY+MfSfjv8AB1fzH0XYByT635Hx2fsp/EdQWjg8cHHVP7X9D+GcB9lr4ssQsh8YUPGH7SvR+P4Z9j5L5byEHivGbXktlwsWtE0jEmqAGfY+E3HpyUY6mb/h/M+PwYaPxWbU8v5vyP5/+sPRuz6J8vseF8iYG3NVfc/yZC4RvwF/nnnE2p5HWN3tXIUih0HO19Teo9v1N6m3/LbEhI3tlnII/wA0n6fpkj6sEaNIiUyAsDZ4Rnf7Px3k8PKPt5LWy3Z5be088X/iPKqitV/p6z1c9ryz2dgfVgjRpESmQFgbPCMlTankdY3e1chSKHQcJtTyOsbvauQpFDoOVPqwRo0iJTICwNnhGZJiB9WCNGkRKZAWBs8IyVNqeR1jd7VyFIodBwm1PI6xu9q5CkUOg5U+rBGjSIlMgLA2eEYAfVgjRpESmQFgbPCMlTankdY3e1chSKHQcJtTyOsbvauQpFDoOVPqwRo0iJTICwNnhGAH1YI0aREpkBYGzwjJU2p5HWN3tXIUih0HCbU8jrG72rkKRQ6DlT6sEaNIiUyAsDZ4RgB9WCNGkRKZAWBs8IyVNqeR1jd7VyFIodBwm1PI6xu9q5CkUOg5U+rBGjSIlMgLA2eEYAfVgjRpESmQFgbPCMlTankdY3e1chSKHQcJtTyOsbvauQpFDoOVPqwRo0iJTICwNnhGAH1YI0aREpkBYGzwjJU2p5HWN3tXIUih0HCbU8jrG72rkKRQ6DlT6sEaNIiUyAsDZ4RgB9WCNGkRKZAWBs8IyVNqeR1jd7VyFIodBwm1PI6xu9q5CkUOg5U+rBGjSIlMgLA2eEYAfVgjRpESmQFgbPCMlTankdY3e1chSKHQcJtTyOsbvauQpFDoOVPqwRo0iJTICwNnhGAH1YI0aREpkBYGzwjJU2p5HWN3tXIUih0HCbU8jrG72rkKRQ6DlT6sEaNIiUyAsDZ4RgB9WCNGkRKZAWBs8Iz90pXliLSNZDV9P3DJE2p5HWN3tXIUih0HOwjiSJfbGtAm/rgHPGMYBBNrwQ7CyKntIif2mz/OFEf+2Y02p5HWN3tXIUih0HODSS7TJFLIaLDoABGZ30PlRmRJj7kBYEj8RgGZ9WCNGkRKZAWBs8IyVNqeR1jd7VyFIodBzGk27K6xvt2rkKfuD6HKH0PlI0iTEMgLDn4jAMz6sEaNIiUyAsDZ4RkqbU8jrG72rkKRQ6DmNJt2V1jfbtXIU/cH0OUPofKRpEmIZAWHPxGAZn1YI0aREpkBYGzwjJU2p5HWN3tXIUih0HMaTbsrrG+3auQp+4PocofQ+UjSJMQyAsOfiMAzPqwRo0iJTICwNnhGSptTyOsbvauQpFDoOY0m3ZXWN9u1chT9wfQ5Q+h8pGkSYhkBYc/EYBmfVgjRpESmQFgbPCMlTankdY3e1chSKHQcxpNuyusb7dq5Cn7g+hyh9D5SNIkxDICw5+IwDM+rBGjSIlMgLA2eEZKm1PI6xu9q5CkUOg5jSbdldY327VyFP3B9DlD6HykaRJiGQFhz8RgGyfgf4VZPXej5GNdeIajlll2SflI/tYj3d/JTn1A/xF8gNiWKOLRZZJHhhKyFhAVlSP5kp/FT7/cPpwfXtjx32XfRianoCTzHmdePYk8tP8xRLEpARCQvD+/uboPjPGsZi3j9YnYHtmJiX/GD6U3O/wCvPOum+N299jNSM4ayp/UW3k39ufR7WelNB8DucPwWk4T1XU+u9nKtnZl0+xHS+l/Nb276Wfye7sQ7OzG+zbR0EYJI4Wq/CgM8+3xA85BpqdqHQj2GQ7PuYkR/LEXzPl/X+cei/wDXX4Z7uDx+jq+4a2rFErKFKooC0L5X0/E/rnW+f8j6W8JBE3no4EjdrjU6pl6guwqqT90dv8AMiFGtRnWklS1tZ5pLevYkiYVqNanRi3W1dVZNvc/a2zxX98ny3j4ojuza00k223+L+SwZYjKqKhINAj3fzj9aArt57Xwm55GTyfltXyW3FKINhFg9kfsCoyAhfqbPfrnV+W9W+hPHPM88MWxPrtGWWLSLtchRbU+2mP30Jo2BV5Ts+qfT07bR8fryeQ2vHSCSWKFPlsCLX3hpParAUQSCa+mX68PGwzhQcc+PL2priWS4s/aY9vPxU8p3CllxZ7dzT43m+PLiyOu8v618t4zyW2n7HrNqQzyaqWT7yywCX3k/QL0givwu86yX195mCd5p9vS+VDDNERHEzrJKJUVXWjZ41e2/r+I+ue80JPH+W0YPJRaqGPaQTL74xf3lrv765nL+R/EfJXX/AJL0/lKpQR/IX2hSbIAqqJGWYXVtSyjOjtWx/jv4y9O1uqmcqdbY9q/DdxHjPE+q93z214fZ0/LFZ5k9+1phUEIiBYF2sFgxK/dAb8PoenOk+0p6rTwHw7l8fFLU3mJF1Fo/VD1v+Q/55s3+RfD/ADVnHitMSqvtWQQKGUfkDVj6nPlD7UXqCDf9U6/p7TP+I8HrBVUE0rkA/wDIVkl0QsqWNY5RjCGUIfWe7cnmtvvyRG9Lr+rgeBV51J5zmtVPbvksnknu2Zs0vJrQRo0iJTKCwNnhGSptTyOsbvauQpFDoOE2p5HWN3tXIUih0HKn1YI0aREpkBYGzwjPSZ5hD6sEaNIiUyAsDZ4RkqbU8jrG72rkKRQ6DhNqeR1jd7VyFIodByp9WCNGkRKZAWBs8IwA+rBGjSIlMgLA2eEZKm1PI6xu9q5CkUOg4TankdY3e1chSKHQcqfVgjRpESmQFgbPCMAPqwRo0iJTICwNnhGSptTyOsbvauQpFDoOE2p5HWN3tXIUih0HKn1YI0aREpkBYGzwjAD6sEaNIiUyAsDZ4RkqbU8jrG72rkKRQ6DhNqeR1jd7VyFIodByp9WCNGkRKZAWBs8IwA+rBGjSIlMgLA2eEZKm1PI6xu9q5CkUOg4TankdY3e1chSKHQcqfVgjRpESmQFgbPCMAPqwRo0iJTICwNnhGSptTyOsbvauQpFDoOE2p5HWN3tXIUih0HKn1YI0aREpkBYGzwjAD6sEaNIiUyAsDZ4RkqbU8jrG72rkKRQ6DhNqeR1jd7VyFIodByp9WCNGkRKZAWBs8IwA+rBGjSIlMgLA2eEZKm1PI6xu9q5CkUOg4TankdY3e1chSKHQcqfVgjRpESmQFgbPCMAPqwRo0iJTICwNnhGSptTyOsbvauQpFDoOE2p5HWN3tXIUih0HKn1YI0aREpkBYGzwjAD6sEaNIiUyAsDZ4RkqbU8jrG72rkKRQ6DhNqeR1jd7VyFIodByp9WCNGkRKZAWBs8IwA+rBGjSIlMgLA2eEZ+6UryxFpGshq+n7hkibU8jrG72rkKRQ6DnYRxJEvtjWgTf1wDnjGMAmfVgjRpESmQFgbPCMlTankdY3e1chSKHQcJtTyOsbvauQpFDoOVPqwRo0iJTICwNnhGAH1YI0aREpkBYGzwjJU2p5HWN3tXIUih0HCbU8jrG72rkKRQ6DlT6sEaNIiUyAsDZ4RgB9WCNGkRKZAWBs8IyVNqeR1jd7VyFIodBwm1PI6xu9q5CkUOg5U+rBGjSIlMgLA2eEYAfVgjRpESmQFgbPCMlTankdY3e1chSKHQcJtTyOsbvauQpFDoOVPqwRo0iJTICwNnhGAH1YI0aREpkBYGzwjJU2p5HWN3tXIUih0HCbU8jrG72rkKRQ6DlT6sEaNIiUyAsDZ4RgB9WCNGkRKZAWBs8IyVNqeR1jd7VyFIodBwm1PI6xu9q5CkUOg5U+rBGjSIlMgLA2eEYAfVgjRpESmQFgbPCM5eE197zfl9LxERLtuTpBQUf5zAf9cjTankdY3e1chSKHQc3J9mz0dreZ+IMXk5YR8nxMZnJJ57zxfr+/ua3GMQjhdhWvJf8It/HiXxZtsCw2WL4lRso/wDOST929v4LM+tvTPhoPT3gPH+F1kCx6eukQA/MAX/zzs84/Mj/ANNf1x8yP/vF/XPI9Scqs3Untbeb+J7AhCNOKhFZJbDlnWeZ8FB5kxtNK6fLjljHt/KRfaf+Wdj8yP8A7xf1x8yP/vF/XEJzpy1obGfJwjUjqzWaPJbHw71th5L8nOsXvWWGMKv+LkHstr/G/Z9D+Zz8h+Hia0+9t6/lSNjeDLI766P71LFqex9/610/Ss9d8yP/ALxf1x8yP/vF/XMvzjdZauts9y7jEeG2retq7fe+8m8T42LxHjdbxkDu8etGI1ZzZNfnlecfmR/94v64+ZH/AN4v65hycpycpb2ZkYqEVGO5E/lvIQeJ8ZteT2XCxasLysSa4oJ/6Z/PH1N6j2/Uvqbf8rsSlhu7TvRA/mluD9M+vvtKerU9P/D2TQhlHz/LyrqqAe+wke//AJXnxtJqwRo0iJTKCwNnhGdx8FWF+KtauITW2b1V7lv7X2HC/C3ivjLmjhsHsitZ+97F0JPpD6sEaNIiUyAsDZ4RkqbU8jrG72rkKRQ6DhNqeR1jd7VyFIodByp9WCNGkRKZAWBs8IzrRx0PqwRo0iJTICwNnhGSptTyOsbvauQpFDoOE2p5HWN3tXIUih0HKn1YI0aREpkBYGzwjAD6sEaNIiUyAsDZ4RkqbU8jrG72rkKRQ6DhNqeR1jd7VyFIodByp9WCNGkRKZAWBs8IwA+rBGjSIlMgLA2eEZKm1PI6xu9q5CkUOg4TankdY3e1chSKHQcqfVgjRpESmQFgbPCMAPqwRo0iJTICwNnhGSptTyOsbvauQpFDoOE2p5HWN3tXIUih0HKn1YI0aREpkBYGzwjAD6sEaNIiUyAsDZ4RkqbU8jrG72rkKRQ6DhNqeR1jd7VyFIodByp9WCNGkRKZAWBs8IwA+rBGjSIlMgLA2eEZKm1PI6xu9q5CkUOg4TankdY3e1chSKHQcqfVgjRpESmQFgbPCMAPqwRo0iJTICwNnhGSptTyOsbvauQpFDoOE2p5HWN3tXIUih0HKn1YI0aREpkBYGzwjAD6sEaNIiUyAsDZ4RkqbU8jrG72rkKRQ6DhNqeR1jd7VyFIodByp9WCNGkRKZAWBs8IwA+rBGjSIlMgLA2eEZKm1PI6xu9q5CkUOg4TankdY3e1chSKHQcqfVgjRpESmQFgbPCMAPqwRo0iJTICwNnhGSptTyOsbvauQpFDoOE2p5HWN3tXIUih0HKn1YI0aREpkBYGzwjAD6sEaNIiUyAsDZ4Rn7pSvLEWkayGr6fuGSJtTyOsbvauQpFDoOdhHEkS+2NaBN/XAOeMYwDgIYQQREgI/ojORAIIIsHGMA4iGEEERICP6IzkQCCCLBxjAOIhhBBESAj+iM5EAggiwcYwDiIYQQREgI/ojORAIIIsHGMA4iGEEERICP6IzkQCCCLBxjAOIhhBBESAj+iM5EAggiwcYwDiIYQQREgI/ojL/H+b8z4j3/yT5fd0vmfz/wBn2Hj939ftIvGMonThUjqzWa9pXTqzoy16cmnyp5Mt/u19Zf8Am3zP/Hy/2sf3a+sv/Nvmf+Pl/tYxljyG15uPQu4yvOV7z0us+8f3a+sv/Nvmf+Pl/tY/u19Zf+bfM/8AHy/2sYx5Da83HoXcPOV7z0us+8f3a+sv/Nvmf+Pl/tY/u19Zf+bfM/8AHy/2sYx5Da83HoXcPOV7z0us+8f3a+sv/Nvmf+Pl/tY/u19Zf+bfM/8AHy/2sYx5Da83HoXcPOV7z0us+8i8l5rzPmRGvl/Lbu8Ij7oxszvL7D+Y9xNZEQCCCLBxjL8KcKUdWCSXsMapVqVpa9STb5W82cRDCCCIkBH9EZyIBBBFg4xlZbOIhhBBESAj+iM5EAggiwcYwDiIYQQREgI/ojORAIIIsHGMA4iGEEERICP6IzkQCCCLBxjAOIhhBBESAj+iM5EAggiwcYwDiIYQQREgI/ojORAIIIsHGMA4iGEEERICP6IzkQCCCLBxjAOIhhBBESAj+iM5EAggiwcYwDiIYQQREgI/ojORAIIIsHGMA4iGEEERICP6IzkQCCCLBxjAOIhhBBESAj+iM5EAggiwcYwDiIYQQREgI/ojOeMYAxjGAf/Z;" vertex="1" parent="1">
                    <mxGeometry x="60" y="50" width="387" height="598" as="geometry"/>
                </mxCell>
            </root>
        </mxGraphModel>
    </diagram>
</mxfile>